<mxfile host="app.diagrams.net" agent="Mozilla/5.0 (Windows NT 10.0; Win64; x64) AppleWebKit/537.36 (KHTML, like Gecko) Chrome/132.0.0.0 Safari/537.36 Edg/132.0.0.0" version="26.0.11">
  <diagram name="Page-1" id="q3uxbazwZkLinIp27FV7">
    <mxGraphModel dx="1042" dy="531" grid="1" gridSize="10" guides="1" tooltips="1" connect="1" arrows="1" fold="1" page="1" pageScale="1" pageWidth="1100" pageHeight="850" math="0" shadow="0">
      <root>
        <mxCell id="0" />
        <mxCell id="1" parent="0" />
        <mxCell id="rxjsp6YVT92QMulJiRA_-1" value="" style="shape=image;verticalLabelPosition=bottom;labelBackgroundColor=default;verticalAlign=top;aspect=fixed;imageAspect=0;image=data:image/png,iVBORw0KGgoAAAANSUhEUgAAAk0AAAFxCAYAAABuqpwTAAAAAXNSR0IArs4c6QAAAARnQU1BAACxjwv8YQUAAAAJcEhZcwAADsMAAA7DAcdvqGQAAIKdSURBVHhe7f1/eFTlnfj/P+u22y3LIcQk0kQL4YeTYJCKRAw/g1ZgEwK1Ke9vASkarV4V4QIXWizrLrK1Kmso8AGxF66iNAJ9L40WArz5UYUQICKIRSLJGCAoJhuTGMKwdnfrut8/zjkz59xzZnJmMiG/Xo/rmutKzn3POfc5c2bOa+77de752tcS+v/vL8f35f60/2bbxv/g57jTe9Q88u/s6/+/4Z2X2XO83vivH+lzHmKg92UO80NLvYvsX/c6deaTBt/H3FzYv66C7yzIJd1YbF+XE339o+IDSyp3P8Pxc8Y/g+9jbu6AQGHzSYqL9nLV/D9+CjlzBnNh9zkG5o4kCQJtsz1Xaa/5vKLfw1TL9qt3s3nP+2Ytnds2FB2lz5zw+56cs4xJQ8z/LnO8aAOVzca/5jEsauS2Oea+WI5H/BRyLMsJsY1W2xNmPck5y5jEbvaT62+nXobtdVK3az4v6Nh1ME9Kf7y1H6uLI5Kcs4zveC3nZCvLoxN4nwW9nljfX4FzWH/fQuXFvqRbTk/bua681rbXzX+ebKAlK3BeOr3/A+/PwLqdXnP1s8T2XrY+p7yfpV3W9+ZtjFqQS4LTeW3oPWoe+Z5z9vegybJP9vfVgNDvI9t7Xt1fbO0L2rbT9lpZh/6cRN73v8/VMvt702xf8PF2OGeM5+9Z94x1DR3Kk9KfS199U10cvX7TGDU7g74XS9lXfNS/+Ovp/4fMvxtMn6/B//ylhX+vOMn5suP8+S+2Z4fxMK/tmojH/38tW6b+jHX+4uc5di9smeol01Lv6juvM+mfdxv/5bJq630MP/s6z/MDVtzZy1iurMvJw89z7N6UwP9XKlg+6xn2gX+9Y/oEir1v3sf9LwX+X7DudWZzkC1MZPYgfZneNmzPtbc38LzRpz2W7X/B0VUPs/gtf7WI2rC8YVT4fb97GfsXZ9Db/P/8QUYvMFcUOIY7ku7z70vgeAS3w36sdAvWvR54LtjaYZZdZy127zZuSTjK5nXP6I+ik3DnQ4wabK+VdOdDjOf3/nr7qwcwacF9JNtqDWDSggw+UdaVM6qfrVbAbYxa8BCjmnYHtr/7or+096h5zM2N43iRUbbuGfY3jSQ/aLt9GTUaDq97hs3rXuZ48wAmLVjG3NGNFFuX5dxmexb0ZdScH8Iuc/27qRySy1xLvYjaMMey77svknTnD0m3fHD6P/T8dVoYNWeerQ4MYNJUc1+eofidy6TnGttq3suedS9zvFm/sG1e90zIC0vY9rS2niG5fMdrfd5DzF3wEH2OOaxLxEgyfeKhqSnE63nuAMebB3Cb+V4afB/5d7awf90Gju/QzxOaTxrnu3EBHnwfc+eMpGm38boVnQTr63Z9Ikm00CdLD/7M8y3pznv853ZyjvX9+TLHqxvxAdCPuASo9AYCpuScZUabAudJeq71/Naf00AGOf5zfDeVWPbLBS2hLzTVBwdM6Of2+9V9GZVlvIfjp5BjvH+PnzOPyWAu+N/Pu6k0nxs/hZwFehBivkf142rus77tBu/7gW1fn0hS8zku+QOmEJ9plnXoz4njNv8xCARk9rYZ79EmPZz0NV021wBA71E/ZFQ8JCUEPomSs0aSVB24IPYkX1b+G+UvbOXE+xf5/L/juPG2uxn/2KN8J/nralVHk//JQ+Oq+xg9VX9sOZ/C7K3LmGyrlcLsXR5OGHVGr6qAO+9j/z/l2mr1vvM+fsYb9nXtep4FtloBk//pJY7d25ej/u2/ztFGs/RhXtt1H2MaD/rXN3pVBSn3vh60XQZNJPO0UefNWnrfeR/Hdt1H4lvWZT9g1d32pzFoIseGe/3rX/4OjFn8kqVeZG0I7PvrHL2Swux1DwfK717G/sUDOW3d18SJHLPWMY6hf1+mHsTbJ4Of/VMusJvFs+5j+Ttf6MHS1PsYrQRMAOsW6PurB0v3MdoImCb/00vMTtSfd92rU6/n/jQ48/++cN3LBO9z3No70Pw+F5ohIUH5EKvebbuw1u3RP+y+YwuuLnO8yNKb07yXw+9cJslzWyCitOg9agzpzScptm7/3OvGN9PbuOXOvlTutn6DC7PdXea3znoqj110XjYkQwl0UNb/Psd3W+tF0gao3G3Z93MHON7cl4E3G8cxfgq3DbnIftu+KnVAaTdcPX7UcVtuhG1PONW7A70D5w5wvNlpmct1dRPpucuYu8D+mDTEefl9M6cQ91fqGloR34+EoO1YAw79HE7y3EZvfyAQeH2DLubcxqjcATS883LgdWuup4m+9Lle/7d3QhwwACy9ZVebWvxr8Ac5xkUb6qncY/aw3MbA+Mtc+dwoGnwfk4YovblB54keGCYlNHLY30tUxxXLewve57gaxNvobWJIru2YW7+Y1ZWfpGFIBsncxqg5I2nyv3/1YxL0nt/zvt5rM3UkKL1sN3msx/U2vjPEHtgmewbYArjknFzSld7q3glx9jqeARDfwvtKb/X4O7H3PBvH+MJHTsfiNm65E46/E/iSqbfvMsfLO1dv7zXxtd58vU8/vv6Nej5/eyunNhby1h8/5b++Fodn9Ci1tqN9//wzW8/KutO10CeeNGslvuDoKkuvyVvP8Pw7X9B76G324Or8QVtvzroFB/GSQqY9LjA8zH139sL7prVnZzeLF+iBwOR/GoXnSgXL/T0x4bfr7/l56W2OXnFa1ovh45RAR1n/vn9+w1YvojZcqeB5/77vZvFbtTDI4w8YF/wgA955w76vSh1Q2s1LvO60rSikJfWCxgb2AdfdnfwlR4qbyf34f9V6rbiNUf4PILVbWRf44DTpH3b24KqFFtsHoPEhHJ+IZl8Mjh/0FvH9SOAinwQNfbzPJ9Xqdp0EtyWY5UPf9HkjDcQRFx9pGxzWZXV9IkkYPWBhj7WbdrvRSnsiFPz69yyVZm+N5bG/2nn5Wy0jSUtV1xBe75sHk+TvKTIf9mCdcxVUxo8kP2g4KPhizuAM0rnI+/4AQB/2Sm8+yYfG+awl9LUHw+YF3t8rUs8l72WSnHqLjV4q81xN9gyA6opAwOQkvh8JypeCVnvYVEYgYe353awGWc3vc6F5AJMW5IJtqF8/JsHvZ2DwPYyKtx4vgttmtD/wvlKCyvgp3BYUtBiBl//9YzznnQO2Y6X3EB21v97KMb7a1AIJ/ehtfuGsPkplE8HLYvL50cX89e0MfbCAu+fk8LdfA/iSL6s/pQX4q7/+G9x+h5n8Ty9xbNfr+sM6VOZ3mRrbkBXsq7scFFxdbfjU8h/ApzRegZRkJVgBuDuJFGo5YYlHrNKSenH17PtBPSn7yi5wNSioCxbcFgdGEBGwm5pG6J10I0TahqB1WeWSmqj3IvmPc4hj7ardUVj3RgVXB03k2K6XuO7I9hZm+bv03Ok9ah5zjQ8Xa5ewaAdBF0WHD3zRI4UdcjIZvVHYhoOcLuaBXqRAkK7nCW32927ogZZ1eA2HLzJXj2/wD7PPnTPF32NsD67UHimTPejQA0OntocIZJwogYQzfbso67W32c6xbHAG6dbjGrRtJagKKjeDPGtQ6BQkOh+/ZM+A4DZBoJep/H3jS56yrCf6r6NUn2zhf/42jaz5Sxj/00WMf2gUN/Aln1Sc5H/U+kEe5rVdr7Ni6AV9uMcYyhLtw/umOexmfbSS8xUrbz3DpKn3MfrNy1w3K4qehZs8fe1d+G6F7ToOCPcN1NcUeuhOH0pwGpZy+FYdQ7YP9li24fNGGuIHc1NQz5IQzhdNO3Oo6WWOM5JbrOek08Wa4CDdFpw7BFohz+vmvexZt5vKeHO76rCVs96jxth6dpwCQ/395hQYOHMMbmz6kT5HDxD3V0eWK2XXj/TRA2wBatBnWbieK0Nylp7o7a/jNkiMn8JtQ7AfYyNA0tQepfhEblKXdWeXP6T67aOces96EL/kz4df4uC2t/BWf0pjbT2N1RWcKFrP2Q+sQ84hPOzBQy1bHHJjWrNgeAqc94a/4N99G8P7fMHpMod8s7caqA05dAdVDc7DUpPHDaT3lWaqlOWx8TCZg8B7Wu/+il0b9B4sz/AQO3stvfSz6BLBW5rsiYRmcqEqyZYcro//B31rZACTLN9G9TwHy7fZ+CnkLFjmX8/V40f14QZrgvbg+4zy9/nwnctKIqmRM2AZYmibvoyaY0nojp/C+DutF4MYtqH5fS4092XUVMvxAZJz1ITy1tQHvWbm8GrQEEpYTusRHSKoN0IVuKPs+Dl9yCx9dKheH93Vj87R4A9ydMk5lvM4KIE5OJCynZuOQZbJHMYLJJDriep9LXl1wYnjqIHU4PuUPC6VHqypgVeAcddak55/Wee9aGtT0DGJn8Io4z2jpxEEvtQk5/yQgRBmWw4+b6TB8iWr96h53JZgTyR3DhKN96L/C+RtjJqqryTonIgfyaQ7WwK5kcYXu1E9qZfpv87x+fulNNSo75cv+Z+643yyZytnd2zl7J6dfN7wn0qdEM41c5W+pFoTnx2GjEBJDn/4eWZbggtT7zvv4zV/XJDLqocz6H3lAnuNob0F617nmH89er6O515r4nUuq9bp5fv++TjePhmsUJKpf3ZnL7xvRR7kORo00ZbQvWDdRDyWIcNYtmHd6VoYNNFyfPR1vaYmlLfCaVhUH161JNwHva6wYF2gPKqgqW6PcceY0Y0/nqOOw3MN7+zmymhLLg7Kbfeg31Z7LJF8c0jAepuvo/c5bt6x5n8O/m9hV49voPgdGDUnkAc0id2WIYa2uszx3Y3cZm57jpoIGss21FNZpPcS+I/PgmXc1mTPbXBDT3TVj1lkgZJdrNYj2uj6RJKCksCX6Xdxxk8hZ4GeXGyel+aXDfPibwYD+dbXsXkve3ZftK3ztqbf+3si1ARmUHus+hGXYBnesyVUGxf5Ox/y32l69fgG445a831suWONQM+0Pehy08NmZQy7KUngcxfcpyd9m59LZkCh3nGoHpM5g7li9pSfe5391X397/PveDfwflNgy5h3rw3JDQxTGkHSJDPQM258Mdc/nt9z2Gtfh1NvG+bnsPEazl2QwSdFR1E2bwRIwflQAPSUXqb28tYzPP8OjFls5tl4OOE4PFfLlrfiWWHJxVFvuwe4+s5BGu8213UfYwi+Jd5q3z8/bNyxFnjO8AYzh+gl7p96EO+giYEcIOPuM3W7UTt/kB1JgTyj2YPUaQJi2IaXfsboN2vx3GvJaVoczwlL4rwrL72t35m3yxqAKt56hh3nexnH1QyWjOfsep2vfS3+O5FmgLvgMBeIE4d5ZDo1x/lVRHcTi3maSJhCzsyRJLn8WvI/DSf5w//dy9Wv1BIhep6Yz9PUUfzzNIXLvQnMMWS9e64z88/TZL0zrodw+ZEuhIhI0172vBCcwB/q8fo2CZiEEKKzk6BJCCGEEMIFCZqEEEIIIVxop5wmIbqumOQ0CSGi1m1ymkS3Iz1NQgghhBAuSNAkhBBCCOGCBE1CCCGEEC5I0CSEEEII4YIETUIIIYQQLkjQJIQQQgjhggRNQgghhBAuSNAkhBBCCOGCBE1CCCGEEC7IjOBCKGRGcCE6lielP//7v/IL1qLzkZ4mIYQQQggXvva1G9Kkp0kIIYQQohXS0ySEEEII4YIETUIIIYQQLkjQJIQQQgjhggRNQgghhBAuSNAkhBBCCOGCBE2ic7kumW+oyzqTzt6+sJL5hrzjRZcm57DoWHL6iU5kArn3/ZYX5iwlSS3qFDp7+8K78fZ/4YWlv+Xe3mqJEF2DnMOio/3V1/428Sl1YXd07wOlPHnbDRS/f0Qt6gF+xLzFL3L/9V+w+6MKtbATuchH569n2MTv88NBN1B++ghfqFU6VGdvX3i+un/nP2+cwuy/y+Gr99+g8r/VGm58l+/M+f+ROvxO+gU9BvDF6Q/5b77BNwZO5DsT8xiQOZy/+cb/8EV9PV/JjHCijWJzDgsRvR4TNKXfVsAtfNRDg6Zh3DFmFEmN73byoAn473LKTsfpgcl34iivKO9cgUlnb19YlzhfcQHfjVOY/b278Z3ewfmILzpp3JiXyY1xfeid8G1u6JdAn759+Fbv3vSO+y/qD3vpPecpJk4eTr/Eb/GtPt/mxlvvYMjwG7h0/E/8RQIn0SaxOIeFiJ4ETT1CFwqasAQm38vvnIFJZ29fWMZF5ztTuT+qi85FGg8f4NzhA5z7j6Gkp8dz+Z0NvPXK7zh3+AR/7jud4dOH0OfTt9izah0fHd7Lhb/czpBbPWhfO8Ol81fUFYouLmPqLlZPH0XVsf9Hg1pocFPHvbaew0JET3KaROd0dQ3P/qaYC9/JZ/kPHut8OUSdvX1hHWP/757mtU+Suf8nLzIxlvkh//Vn/vIVcP1AEhJ6AfCXI+v4f4X/wskj/67WFiJK7XgOCxHG176We/x/i74/wPj3Itv/8ce8CXDjGtb/9GY+/M1UNnxqeUbmbyn6PoF6ody4hvU/vZ2+5v+X3+PZVYvw93OY6/lNE/dY6n30hwmsOGFWCl7P5fJdfJg+lVsqX2D+rt8Z+TqPkXTI/ryMqbv4RfpH/m3e+0ApM9jFnFdXGjWWsvyXU7nZ/wzLvmNp3x9gxvcHBLffQcbUXfwiS/P/f7ncbCP+dt5S+QIvMtdSL8R2//EM37W0z76uVrR6zHRqe23H3nz9//ARt3zfXJfR1szf4njO+KnH1sdR9Txyq/djLPzJj7j57AvM3xtm/0Oeb+Zx14/BmL7W/dTLxvif5HD+tcZt+4KOSTSvu8tzyLXRTPzBk/xkwEc8uyb8ue0o8++5996BfH5sHaW7vMbCb9Drnp8zbsK36XUd/MX375wvL6H68J/0YMqNkK+lzv9ePjPMch6q51j0x0p9X3Au3OdGqO0Gzjf855X9ufZzLZL2um3DCxxIeowZg43FDp9h6r46fgb8ppSknzqdk8Hvn+BthKujlqn74UYbz2EhInRdUXYTz/7jBOb84wscvTyAGQ8s1Us+PcaHlzVuue1HtifcO2wAnDsT9kMH4N5JCRz4xwnMMdfN7fzCXLffAGbMhBeNes+W+7j5+7/lXrPY+PBs+IO5ngkcSAp8ELVFxtRhNPwmsN7t5wYwY/EaMmy1BjBj2Bm9TisBEyxlRlKpf31zfvMeZD3G8kx7rb5Zj/Eom+3b/aVln0Hf7i+H8SdlXeun2l8LRy6PmT+otGwj6fulSns1xmSbr49xfvyylJDnDMb2fzmVpPIXAsfiD58z5qfquiPz170T1UUWS1lu2+cXONpkr9E3awJs08v1i8JSlv/yMcY07bK086L9SREI374IzjcXr7u7cygC3/pmDHvK/sIXB37Fvl//KydPfILvW98mbdJP+Lsn/p4kl70Brj47Bk+lyHxv/uMEni2HMT/dxbwb7dUiPVb3PlDKL7I+Z7t/+7v4yCyM4Ny2nm/651opRb+c4D8Hgj7r/M9rpb0RteExvnvGsh99b+dRy7nk+jPgp5Zz8g8X6Zs11zjOv2PDKn1fuPyevp6gz8nQde59wP7+e7b8c9szIxLTc1iI0K47us08yX/HhkMXYfAw4w2q/983fbTlg30p3x3s4+h+81tXaG++av129DsOVfogIVm5SPgIbB8qdpXyEQP4rvGmvXfS7fQ9t8v2zf/NV1/g6OXA/9Gq2PVj2zeaN89chL4Jlm9v6O1zsa+6lazwfxs1g05I6qcEOud22Xp73nx1l22fdT6O/sZy/D5dxIvlPuW1cObumC1lRha2Y8+nizhwDm4eZr04WV8f4/xwWuY/ZwLbt/WKnfgx24PW7YLRi3Pb5V38w+9fUEsDbkwmCR8NdeaC37HhVeXD+1yp7fXOmDqBmy+/x7PW1+zEj6PqZWq1fZGcb25ed1fnUGuMb+hDP2f7ukc5qBZH668T+Ebf7/CN//qQT978F0qfWsofj1+BXgMZmu1Razty9dmhvHYVuzZz1OFLXkTH6sY13DNYeQ0s7+tIzu3L5Zv9r7f+uea0zKEdrbQ3kjZg+xxYyXbbueT2MwA++oPleJwocT7OEfsRKQlwuaHGv0R9j7Sunc5hIcK4rjbcSXriDB/1vZls89tb5jBuvvwRh4znZEzdRdEvSwMP5dvgvQ8Eymzd3X6fE3r7+pvqozNug5bI2drv7+a3Utv3I+YttuzvL9VvZUtZ7i9TuqQN1g8JXQ0NQcGVul2oqP/ccpG1bqeUol+a37BdHrMbk0lCY8xP7fvi78YPK7htAaG3/+aZi8EXvnAsAcnPX10ZPnn000UcOGfsj9ojYVCP+81JGpcrj7XSexhGJO0zRH6+qa+7Tt0X53MoHMvF5v/7MW9eVcvb4MYfMGHJz/m7uXnGJKBf4PN+wn8Bf/PXfdTaIbX62dFUF9SjUdsEfZNSbUsjOlbJCfS1fL7Ztf3cbqgPN3yrC9/eyNoQvC4L158B1i8jsWR8Kc96jKIwPX+hteM5LEQYrSSCr+RP5wLfKu4dNoCPDll7hqYGuoj/cUJg3P/GNaz/pZF34O969QVW2+H0oMPWNe1qaEbvarbus/lNTr8gTgXrEFEMesScrWSF9bj/Y6R5ABi5EvZ9sb2GHSmKgOTNV41jnjBVvwCECJ5iIuL2RXu+tYd2vthceIPTlV/Ad+7m7/5pJZOXreTvZmfQ66srVJ/4k1o7WKf/7OhOOvgz4MSPjdf3en3Y33Xw1M7nsBBhtBI0wZv734P00WSwlO8OvsifXAxfZNx2M33VoY8oqV3FkEqSQw+O+s3x5iSHb6emzGHczEW2B42/R+tHZKdrXC5/IbLhHYAbR3NLXx8fvh/+W6jbXDLcHLNP62hwGhpoM/3bfvD2jfYH9Q44iDggsTKC2j/YhwydfNTgMOzlRjTta8P55up1d3kOxfxic6GU8l17OXvaeldcEw1FK9i/+S285y/x7x9fova9t/jjr5/i/Cd/sdRzFv1nx1K+O9i5F8Ym3LGqa+KytWfdJgbndjRs7Y1hG9rtMyBy+pfvMMOmNjE+h4WIUKtBE58e40NuJnvqMG5u7cPbEDSkcOMaHnXqYg/LzJeZahsCu/cB610j+HMe+mblBS6Smb916Ga2qGviMteT4v9wXMpyx+ESt4KHBjKmznUcnutrSw7/EfNm3u4wJKAkCRv70+oFwfUxW8mfzhGUiJox9bdBibSRenP/e1wePNWevJz5W2a4yoXL4N4ZP+K2ywd4crPLgAT9/FruJkneomJXKR/1VRKMM38blExrF2X7XJ9v7l53d+dQsF6Z8/SLzYafx+Zi03SCfz9WQsMn6txLX/Cf3jeoKlrH6aJ1nH7zDXyXWw+YiOSzQznH9HM8+Etda8fq3gdKKTKPuX+Y1/q+WMpy4xxp27ntTmvtjV0bYvcZEPSaqcfVsc6PmPeAeiNE66I9h/WRgMC+qv+r7RUilNaDJn7HoUoYk3W9+zfliR8bd30YY+Uz4UA0XewnfsycP1w07jzRH989EzzspSeBWrY37Ez4Lv1PF/FiOZbx/GH8qY3DJW++uouPBhtDQ78s5VFKg9oJ+u3/Ddnmdh9jDOotuujd5ocS+IUl/8X1rfAuj9mbr5p35gTq/SLpTBTDfIpPFzHfuOvLXK9+K72bIcQK3tz8Ex7b/M986vb2dENS0PbU27RVK1nxj/bXrOj7BF107aJsn+vzzd3r7u4cCvbFiZ/zSOHPefNyuySpxIbbz45zuziQFHjNZwx2ujU/8mMV/L6YCmbQ2qZz251W2xvDNgTva5SfASdKAp+/oQIPpzoJtwfOdSO1QT3XVV3iHBbd2te+dkNaqz9soM551LECc5C4nreoU3DZbrfzYInuxdXr7vIc6uaC51xz0tWOVVdrrxA9k4ueJiNfpy13GsVSuJwEIYQQQoh20nrQlJnHmL4XOdAR334yf6tM7KdPYthXmXNHCCGEEKK9hQmajLmAvn+9MtnbNVTXZB+7/+VUbrb9pIEQQgghxLXhKqdJCCGEEKKnC9PTJIQQQgghTF+7/ta7padJCCGEEKIVMjwnhBBCCOGCDM8JIYQQQrggQZMQQgghhAsSNAkhhBBCuNAzc5pS1rDvwZH0poYtT/+Y9Wp5D7T42VqeH+MDNN76VQr37FNriE5t8hU+/4c6+gKXjw7m+l98Xa0RHf97xeTj6Cu5LKm11eq0fn5gNw8Ohg//LZf8n6ulhoI8Gqal+P/17tzI2E22Gp1T9liqF2YQZ/7vq2D5/UfYYK/V/gryaJimcXjtVvIPqYWd1U8ovpDPLZzjlYEL+Be1WIgQpKepy1nKq08eZt+UmWpB9OY38fwYeOtXaVyXLQHTtZRXuIeK8iKWqAWR2teH67PTuO5XyTDmHJ8/+6VaI3JmwHS+hDFPjzceXSdgcmPeslk0TIOi/I0k5W8kKb8Upj3CkQK1Zid06AhDjHYXXVALr53Vw1LgwqkuFDAJEb3YBk1aGqOn55M7fRIDNLWwE6ldxOSnxzNGepkAeGlEI1THxyBYeoLt5WVUWB7lhTEM7kTr9vXh99XQ94a/qCURm3yrh974OHqw687Af7bhKnCVhiq1RO8hWZHpoyi/hMf9CysZu7MWz7Q8VtsqC0fZY5k2ELxnKtWSTq6ahivAlc85qxYJEUaMgiaNAXflk5sJ3kqfWig6tS8ZmKQui8KiIirK8xjqLSEja5z/8TR5vJijVhbtLukvLFaXRaWJmm7UsxSQSPHEFFpOlFsCJsOmarxoDMhWC4Rq3tj+xFHL8a4wnClEDMQkpykhMx/Plf0c8/ro5ZnExHSoeHs/Fztb/KTmZ7Sc5Kl1i7B2sMyffZjZlPBUUzZP3aHB+RLGHEz2P8+7azwPnDLX5eH0K7nUTDzM7EGh1xm03aBcqpkULniMMU32bQFcffcFJu/dxuQpu/X2hGDWi9yXHNhxjrsb+nPdQ99SC116gu1mwDT3ObUwyJLNZRR4Av/7ytaTtcRo+6IiKmbCphVNzFg+Eo0aNmWVMHjvfCbEAf5t6Ntk2zhevWkPK8eZx6aGTVlzKAysPtA+//8+Slfk8OieQI0lm8sooISMrcmULx+Jubaz28YxY02gHsaQWmB7SvvN8lu9LJ1SxwOW7Qbqqe1ROe2Dey+9XMVDScn8bHofVqmFEdDPuaaQeX+B8l2kLniMMWZyjcN7YP5sy3tEPV/976VDJD6Yh8fIm/K/rxzW12bZY6leGM9OWy+TKZHi1/IZXlXMkGcaAVi96hHmDLRUuVBK0uJA78q8ZbNYkfYxy+9v4r7iCZind8uJwDr8lByqgFq918vIVapXcqtWr3qEOYnOeUvhyvzlYdoP6RwpnkC/E8UMqctymeNleY66j+A/juP9bxWfQ96Tvo7Ax0FwnXnLZhk9guUMsK7PIYdLrxt4bzoe/wjon1XBnxei54pJT1PTiWKOeTtbhOTAPyw3ni3n1UKLhGyWJBxizK4aGJTNvh96OP3KCxxtAc/QpZaKGmMe1IMsPd+jBG/cSJ6aHagzecpujj44ktpdZk7IeLacT2X2k7spVD83B+Vx9EEPp18x6u6qofcdj/HqCNi3NzewDeOiE8gzGR9lwBQji4YxFDj7XmsBkz58V9DvJEvN3qgVJ2HcfCo2P2Gpl8CMRQlszyrhLKnM2Hs/Iz5Yz9IyH3iG2fJ/hs4s0wOUrHFkZK2ntCWVgr1ryTMrGD1gN5Wt9/d+LS2DCcvL2L7IsiIATx4VyxPY7q/nY+jMPbaesiWby1g5rolNSvuDhiHjRrKyPJuGFUa9bTVo4+Yb23yOGZZt6EFSoHcuow0BU5uN+C1HnzzM0ScPG0F6KrON/48+eZijlnNbl8rsJx9juNc8H9X3gJ6DNzvhJE+Z5+srJ+GOx4LWNfyH2TS+8gJHWzSG/3C3/r7aVQNxHiar75U2mje2P3EXqvWAKXss1cWP0GA8jhQ0ctFynZ23bBajzpg5TxtJWltBy8AJNKxKt6wR0DJYUTyC+rVGvZ21xGXm2/OjjIDJuzOQQ+XFCAAcA7i2c91+IC4z35bjtfyED8+0WRQ79boVDMGDj9NHHIKS7LFUF+czngqW+/PF9sP0scwz6xTk0WAEXWbblp+A8QudcspSmFOsB7L+46ZlsMKyD6tXPWIEV4H9JDOf6mWJtjW59wRZHgCNEd+TNAOhi0nQ1O3EwWl/HocG3s2B5NeEZCZbqnK+hDFbzLor2fKuDwYNYz4AS5l9h8bVd1/Qe6cM67eU4EVjzET1AlTDFmui7akzeIGUGzr3G3bJ7alADeVKj4wqrzCbodSwacpCSsyFexbydJkPPNmW4ESDD0r8gYOGl6f9PTkJDLYO97WcZKl/fdt4dI9+kZ2aAzCTF3NSwVti6wkqWfIapS0wNMcSXIHRAxUIWEr+6MWHRlKasSBnLTM8cHabJagx2q+NywtK5j67zfLtdM0ZzgI33dT+r2XlZ6F7JFt16sf+QPypd/WAboslOA+c6wHeXdagfSUnzgfeJ5OnZOOhhi3WnqLaRRS+64NB2ZYvDhq9mw75z/3ecU1s8W9LI7GfWS82bk7QaGlq1Hs6jF6dpLUVtOCjXvlCteGZrfaelkNH2HkBGDgkKO/Ju9PSS7KpGi/QLzlw0V49LAV8FbzuX18lr5/wgdafe5wCkxiIpP1q8LbhyMe0oNHP0ktoCpcAvnp6BnFBPUGN5C82/9eHR7lQausJ2vDMfg77wDPRElwZvDs3WupWcvwCkJig1zNzq3ZaAs9DR/j1CR9xmVnB++nKc5TrES2n/tiBX0pFpyJBk5MWL/sseRy1n4V+w3jP2i8i+z5rAhJITQFGDMPj+Hz7hcWvpUn/1um3kgfauxdp8hfcHgdnT0U7NOfWTKbeqkFLE2rKaFBwon5I1dcFgiyF74Nj9rKqpsC6ckYzIg58n9VYawDb2PWBD+ISsH3XbvGyK0wXfN73PGgOwWHJJf01twVzDvWulVWffhPi6nhQj9zbmY/GevuS9VvGM2bdIvYxk8ke/TW3n9ew7wMvV5VgyPZecnhO7CQyIBHq6xqN3hIjJ2dQPHH4uOgQBKg+anLqWW8tt0ffrjN3240V5/YDjU324T3jDr2g4bmwCeDpjBoILVVVjkOFAGSnMVzDCFytGjlQ5QMtnptty4OD2ccXbyTJCMpC5VZtqNOnUYk2P61w7jgysmRoTgRI0NTugi8qfnEJlrH8a2zyFT4/VMVX8+FX2WlkOCWttIcwAVB79cJcuhQq6FQDnfDSb9CHqwqUOwQrZqaqVTvW+gSuyx5M3eQqvjpURcU1CZ7CaKoLmY/UMb2oifTT9Iuw3vPTzEfAvGTN/7ddOkcsw3cNxY/Y8mbcayT/YC1oGdznH35K575MDcyhwnYRq/YHzBvbnzhbj5lFdgL9MILSVoSuE1mgc3OCZgzh2ffTOXdMiOhJ0NSR2vXbdCvMeX3Wwz+08cJa+ZkPSCVLzRGKUOjgpr00cS6Cb5D6fqr5R+ajE30bnd/EV4c+g/VpXHctA+IoBPfCdgCjd0W/8AboF3QjUdlnzc3Rc32iMS9Z34Znmnlhn4AnKCk7lmLbfp0e6IXsSTrURL0yLBm5yHre9J6zWst8W9aHmnwuRPQkaIqx+UNTA8N7p87gRWP4req36aVkDoKr3vKQ38BDu0hjC/ROGKAWRGdfL95rgaEj/qyWuKYPr8HQ263J3CpjSExJ5CbMsFc0bOvac4xTLU7tMoYKvWciSrh2HoZrm/ZY50sjGqGlN3siP7libBv7vNYcvwB9DqgaTlhy/TqFxiY2kMiARGM4qGAIHsB70PmutMgYwYYl8Tkpf6PLgEkf8opYTNtvCJcADkAj9T6IS0sLykvyO1TFaR94hqnJ6InckxZ5z1tbh+FC0SeflfnmRIAETbE04rfMHgTeMjPpVU8M733HXNudcvNn5+Ghhh1R5Spto6YJJYm2g/mTufOUu+Agr7DIn+BdsuQQZ0mlwFonZy1PjtPwlQUSv6MWtC4jMdyTZ7tTLq/wfibE+Sjd2trdfoo1JZS2aExYHoMZvE1GDtaEWWpg1z3s23sIL6nMtt4pl7KGJXdoXH13l+NUBtdcYgLzjBwdMPJt+JgDh4DzzbRgv7jrd2lFM7xlBBMJrfTAGD01gW2qt+VHIKbtx5LA7ZwArgsMQ1rvboNEileZCd5GnYETbHfKzVs2ifGaj8M73ASSFpvKOezTGL8wlpOSGl+uwPFGD9EzxSRo6uWZRO70fHKn5zMxXQM0Mu7S/8+9K41e6hM6yOQpu/23Ts8epN8W/pTxf7Q/S+KZarkde2oCR18x5nEy7Nuby1PvwpgHA/X026+d575xY/0W/bZs6zqjbX+slCzJIWPFSXyePFu+z5OUWIatnmNGVglnrXWWj+TStnG2u9sioY2bH35da+aQsa2GoTMDbdKnDIhmOG0bj04ZxyavQ16TEiy6tmchWdv0wC6wvhgGZR1uJQ88XYJ3UF7gfWJMwdGuNziE1Ui9T78j7PEdFbRoGaxYGM9O81b8hf05/YrRM3PoCEN26hd3M09mWlNxlMNbjeS/YmxDzb0ptt7WX8lYsy3GEB47g4fU5i2b5X/+nIHmlAf6//7b7GPa/kACt3MCuMWmksDUBv59nAQ7LD1em0pI2llrGao0pwyIZjitkfz7N1J0wSGvyWFqBXeML10Q895g0XXFZHLLHsmYsLLWnOyyy4rF5JYdQZ8g8iZlYkkRu8ktu7PVq/TgoS0TH0bM/IHdoBwmcxJIY3JLS0lnE5jEM4bDfZ2aMRGtbWoT0ZPFpKdJdGVf50KDukyI7u3xM7VtmL8nSoPiicOpl8Y+mWbn1UoCeDekzy0HZ/dIwCR0EjQJfTLEIc0csE0aJbqkyVf44RC4XNFLepnC2VTOYV8Kc16zT6K4elWI2a9jwSG/CPSZsecMJOLk52uvkrH51gkmu7FFRZah/OCfUhI9lwzPRavbDM/pFj9by/Nj9DtQ3vpVCvd0+J1XrZHhOZvJV/j8H+roC1Dd1YZaO4r622hOv8kWY+YQnbI49O+7CSE6EwmahBBCCCFckOE5IYQQQggXJGgSQgghhHBBgiYhhBBCCBckaBJCCCGEcEGCJiGEEEIIFyRoEkIIIYRwoWdOOWDMsdSbGra04TfgupOuN09TTzGTF/fOZ4J/Yh8fpSui+d28dmCZG+ry0cFc/4uvqzWi439/mnwcfSWXJbW2Wp3UTyi+kM8tnOOVgQv4F7XYVJBHw7TAL253mXmalHa3+7xWoRTk0TBN4/DaaH6nrjtweZ6JmJOepi5nKa/G+gd65zfx/Bh461dpXJfdtQKmvMI9XfoHbltvv/4jwRlZ48jYZv54aNu0vk2X9vXh+uw0rvtVMow5x+fPfqnWiJwZMJ0vYczT441HVwmY3Jm3bBYN06AofyNJ+RtJyi+FaY9wpECt2QltKjHaXMzhKH/zNxZWD0uBC6c6RcC0etUjNCgzy4vuK2ZBUy/PJHKn5wced6XRS63UWdQuYvLT4xkjvUwAvDSiEarj2xAsPcH28jIq1MfmJ9SK3cKSzfb9LC+MYQDbFe3rw++roe8Nf1FLIjb5Vg+98XH04Eq1qIuopuEKcOVzzqpF6D0kKzJ9yg/zVjJ2Zy2eaXnX9rfwuqrssUwb6PQbfj1JK+eZaDcxCZp6eSYx8caPObijmN07itm9o5yLWgYTO3PgJAxfMjBJXRYdX9l6vUfE7BXx5HWzwEkPDgv6nWSpuZ8rTsK4+d1sP6OU9BcWq8ui0kRNN+pZCkikeGIKLSfKg39jblM1XjQGtNfv3nUj88b2J45ajneF4UzR7bRbTlMvzyQmpkPF2/u52IHduDZqrkTLSZ5atwhrB8v82YeZTQlPNWXz1B0anC9hzMFk//O85m/Npaxh34MeTr+SS83Ew8weFHqdQdsNyqWaSeGCxxjTZN8WwNV3X2Dy3m1MnrJbb08IZr3IfcmBHee4u6Etv1fm9DtwZi5ODZuy5lBoqb1kcxkFnsD/PuX345ZsNgKTKZZfFs9ZS/nykVzaNo4Za/TtDfU/Q6Vus/W8oLzCPcaPc5Yw2Fq3JdCOQB37/rCoiIqZqZzdpv+wp3M96zFKjbD9hkVFVMxMCGp7gHpcrOtRy1QhtunSSy9X8VBSMj+b3qdNPxSsn+dNIXINW3+fWM2fbXlfqnVG/JajU2HLK01M9+c37iJ1wWOMiUN/32+JcW9X9liqF8az09bLZNJ/B294VbHxg7jBv4vXcsIs081bNosVaR+z/P4m7iuegPmWUuthDCHNGWhbpDNzkozfxKtXcqtWr3qEOYkVLL//CBuszzPb1xg6pylom2r+kyUv6eJ0a91apSfOKp0jxRPoF7SPluV1Wa3ki+l1Ax9BPiU3ynkb85bNCvQShvgNQT+feszUbar7aDmeOxJs63Z6PV0zPpvUz1gRvZj0NHUZ/mG58Ww5rxZaJGSzJOEQY3bVwKBs9v3Qw+lXXuBoC3iGLrVU1BjzoB5k6bkXJXjjRvLU7ECdyVN2c9T4YV8zR2PL+VRmP7mbQks+JQCD8jj6oIfTrxh1d9XQ+47HeHUE7NubG9iGcQEI5HyMD7pgdBotTQQ+JmPVU/McM4znLy3zGRd8Y31Z48gIClbmM6G+xF++tAwmLN/Dizm2lQKpFJTPZ8QHZo9ZCWfjRrJy8xPAEzwwTgPvmeDAYs0ZzgJDb3e7D5G036WctZQbQZm5nk3eVAr8uUvtsM1YGfFbjj55mKNPHja+GKQy2/j/6JOHOWp5P0H494lOz/ubnXCSp8z3yCsn4Y7HlHUlMP2HCex4ugQvqUxfMJfh3hd46l0fDBrGfEvNWJg3tj9xF6r1C2X2WKqLH6HBeBwpaOSi5bq4etUkeMXMedpI0s5a4jLzqV6WaFkjoGWwongE9Wvt9az5UXrwUhvIodqpd+O1nCgOGfC01bxlsxh1xtL+tRW0DJxAw6p0pabG+IWPMIdSS65UCnNC5QgVDMGDj9NHnIOIuMx8W77Y8hM+PNNmUWz24BXk0WAERGbblp+A8QsjzCk7dIQhxvOLLhhBkj9HbSNJ1oApeyzVyjaLLqQwp9hhOHbgBBoW9ud0mNczEktuTwVAu3U0eWqhiEq7BU3f6qMBPq52ll6mSMTBaX9OhQbezYFE1IRkJluq2r+RrmSL7QN3KbPv0Lj67gt675Rh/ZYSvGiMmahcDKhhizXp9dQZvEDKDV0vZyav8H4mxIHvg2P+3qK8wmyGUsMmaw/SnoU8XeYDT7ZDENN2/m3Ofc6/rGTJa5S2aEyYFRzknN02zvKN7DnKvUC/ZPJykrkJOPteYD0BNTS0qMuurSWzRqK1nORpy7fJwrklnCWVGdcg56rys9C9oK069WN/8P/Uu3pAt8XyhSC4xyf8+2TylGw81LDF2uNbu4jCd30wKNvyZUUD7y5/j1ZvvBT6v3wkkKp+qWmjmxM0Wpoa9V4Ho1cnaW0FLfioV77EPb5YuStsUzmHfRCXlhYUTHh3WupuqkY/Zc3gKp1RA7EPCYZZV6xseGarvXfn0BF2XgAGDgkKFOzBWyMHqnygxXOzUg83CeC+CpZbenA2HPmYFjT6DcI/PMqFUlvPzYZn9nPYB56JIQK1Nlo9PYM4XwW/tmzz8cWleElhmhoEU0tRfrjXMzKF7+k3j1g/h0XbtE/QlJzFnSlA7cc0qWVdQYuXfZacitrPQvfieM/aP9D3fdYU+MAdMQyP4/NXcuK8QwDW0oTX+j8reaC9e5Emf8HtcXD2VLRDcwHauPn+5OiV46B0hTUAmcnUWzWl50lX8kcvPjSS0pSCNjO2GdQ7tI1z9UYwZFvuo6HKtoDCuePIsAZ54QSt71p5giyP0wejHsxpN+jfNtvTqk+/CXF1PBjr7hknYd8nM5ns0c8zex3Y94GXq2gk9jOX+Dj9geW91VRnH1aPqUQGJEJ9XaPRW2Lk5AyKJw4fF0MFAX72nqiAVnJ7shPw766qsUkZcmtfHzU5f4Our7Pv2IZntpLkNDznJgFc3SejR2jsJiA7jeEaRuBqFT5QaxsjaK2qUo51I/U+iEtQgiFfMx/ZFlQyNn9j9MNza+aQkWX9HBZtFfugKTmL3DtSwFfBwRPdMpszQj4a69VlhrgEyxj3NTb5Cp8fquKr+fCr7DQyghNIIuZPBN9WAzj35FBfFzIAuemmWPeIpJIUh56QrtzZZ82pipkw+9aujF4wa9CqP6x5XO1sfQLXZQ+mbnIVXx2qouJaBE/hhAmAOqbnNpF+mt6jtHpYiv/iOC9Zc7hQBg/fNRSHyElqjdHDE5eZFejhKchivNZK8NFm6RxR2r8isw29kebwpq+C18MFiS6oQVpAOyTiG0FrXGa+7Vg0FNvz1UTXEdugSUtj9B0pQC3vvF3FF2q5sHP4NnzNmHPsrId/iPVFbs0cNnmJeMjt0qVYfxsyhs28gXwm28NtDxLAnjouhQzs9ODM91ls5lGKmNE2292L1odlaLLdzG/iq0Ofwfo0rotREN5egnt+O4DRI3Jzgv3KWV/X6E/Kjrtg5vlYcmcipvdwQQpzzAv2tBSH5OhYMpKelTyf5Sece5rcSee+TM2hxyaW3PT4RehQE/XmEKQ158l8tFNOmWg/sQuatDRG35VBPLW8s6O8aw7LxcD8oamB4b1TZ/CiMfxW9UK7lMxBcNVbHvLbcGgXaWyB3gkD1ILo7OvFey0wdMSf1ZI2Kdx6Ep+tt2kbuz7wgWdY0KSKed/zoFFD+RqlwEKvE6zkkj4cOtgxOAs1DBcNPb9JG5cX1H4WDWMoPk79MczFeNEwxzvXwrffrciG4WKzTbuXRjRCS2/2RH5Cx9g29nmdE7n1OaBqOGHJL+wUGpvYQCIDEvWeKP2Weh+Hd8TgglqQxXjNx2Ezsdh4uAuY9KGliBUMwQN4D6p33LVBKwngrhyq4rQPPMPUZPRE7knTwEzSd2TUcfBRU7ihvRDDcNdKzlrKy8uo2Ls2Bp+BgpgFTRIw6Ub8ltmDwFtmJqDqieG975hru1Nu/uw8PNSwI6pcpW3UNKEktHZCexayXeltKllyiLOkUmC9Uy5nLU+O0/CVlfjzjio/80Gch6nG8/Rb+J0/sKhqUoIzu8KtJ/H574BrGz0QDG5/+cxUfGWv+acB0IOSVLIWGXWM234dtdJ+d7bx6B59XixXE23GZJud1769h/CSymzrnXIpa1hyh8bVdwOJ3x0qMYF5Ro4OGPk2fMyBQ7ChTv85o+FjzQttIsWvRTk8d77ZkggdhtEjEggo1FvkI3C+mRbbuvQ7+KIfnjMTuMMkgLvSSP7BWhg4wXY32rxlk/TA0h+kGoGOP1E+ePoHK/31ckrqxrbNoDsfrwH/l824kTxgfh6JNolJ0JSQlkE8ACncaZ0VvJPNDD55ym7/bcyzB+kn0lPG/9H+LIlnquXW6KkJHH3FmMfJsG9vLk+9C2MeDNTTb4V2mofGnfVbXuBoiz7dgbnOaNvfnoJ7m55jRlYJZ605RsbcS9ZExZIlOWzyakxYbiSV3+plaVaJ88y3exaSZU6k6c/lsfxEyJ6FZKnbNB7bI/0QcVqXQ/tZM4elZT6GzjTqzIRNWespdbrDrrX2m98Uy8uMwCtwXGzfHtfMCUzfYNtPh6kVWttml7eSB54uwTsoL/DeNKb9aNebKsJqpN6nBy+P76igRctgxcJ4dpq34i/sz+lXjJ6ZTSUsP+Gz5MHk0+9glMNzh47w6xM+PNPs+UUNxepPf1Qy1mxL8SM0FE+AncFDaqtXKTk5/vqWW/YPHWHITj1QMMumNRUHrcs1I4E7JjlYm0pI2llrOx763EvWuxUbyb+/FK+WwQpjX4dXFfunaggS9Hopx3ZTCUlrKyAor8kyFUI70b+o6pxTC0Sk2m1yy27PmLCy1pzsssuKxeSWoqeL1eSW3dnqVXrwEPWdUFHQJ2TUgnOYrHlTnTyvJjCJZwyH+3oQfTLh4Al9RXRi0tMkurKvc6FBXSaEiLXHz9Ta72K7BvREc4dpCYzhuM7vWiSAd2M5a5nhAbyHJGCKEQmahD4x4ZBmDtgmjRLCpclX+OEQuFzRS3qZwtlU7jjb9epV7TdMo8+NlMIoZUbp1av0fKWYDHm1qzbOU9RjGT+ibqQPXJM7aHsIGZ6LVrcZntMtfraW58foCahv/SqFezr8LijR6U2+wuf/UEdfgGoZ3nXHIam4nYfIzCE6O/W3z4QQbkjQJIQQQgjhggzPCSGEEEK4IEGTEEIIIYQLEjQJIYQQQrggQZMQQgghhAsSNAkhhBBCuCBBkxBCCCGECxI0CSGEEEK4IEGTEEIIIYQLsZncMjmL3DtS7Mt8FRx8u4ov7EuFEEIIIbqk2ARNQVLImJ7FAAmchBBCCNFNtNPwXC0XKn2gxSO/RiWEEEKI7qCdgiYhhBBCiO6lfYImLY3vpms0V1bQpJYJIYQQQnRBsctp0tIYfVcG8eb/teXsPlFrryOEEEII0UXFLmhSJGTmc2eKj4q393PRp5YKIYQQQnQt7TM8BzSdKOciGinJmlokhBBCCNHltFvQJIQQQgjRnbRT0KQx4K4sBlCL1ytjc0IIIYTo+mKS09TLM4mJ6fZhuObK/RyTgEkIIYQQ3URMgiYhhBBCiO6unYbnhBBCCCG6FwmahBBCCCFckKBJCCGEEMIFCZqEEEIIIVyQoEkIIYQQwgUJmoQQQgghXJCgSQghhBDCBQmahBBCCCFckKBJCCGEEMKFnjkjePqrLJqfRbzxb/PxlazZvEmpJK6Fxc/W8nxGb342vQ+r1EIAHuCN2d/nFoCP/0Ba2atqBSGEEOKa6HlB05RdrJiWxDvrR7G7EqCA3GeW4qmUwKmtkuce56ejGvjD/Km8pxY6md/EV/+nkbP/lkbGerUQYAIbpz5OdosES0IIITpeOwzPpZAxPZ/c6fmM9th/xLfDpb/KIlvABLCJ3ZvLYdSj5KZbKz/N/esrWWF5LJpbYK0g2mLyFT7/P41cPjo4RMAExE1gRNx/cOgDCZiEEEJ0vJgHTQmZWQxQF3YSt+dlEV+zzxIwGSoP4b3ShySz4VN2sWL9DAbVbGf5/HT/43fMUAIrEa2XflRH35ZkfvWLr6tFAX3i6aMuE0IIITpIbIfntDRG35XBlXfL4Y4s+lTu55jXp9bqIE9z//rJNNh6mQJuX1LJ99nO8kK43wyYCp9UqwW5fUkl308N/G/Lj5qyixXT4A/rG5gwP4t4zvGH+dv59jNLubMP4N/G09y/fgbsTGdfv+P8dJQZKpxzGOrS6w7y/39F6Tmz7EvJTbbcrfM703ltb6Ae/iG1QGii5nclzz3OT9M/5DfLLjHZst1APbU9Kod9mHyFz/+hjrqQw3KG76yianw/Du2awyMtaqEQQghxbcWwp0ljQGYG8bXlVNSpZZ3AlBEMuvIhpyoJGnpbNLeAus+uBOoB5z9oLWDS1/H968v5jdkbtb4cRi1lxZKnLfWSmDA3idL52znPYCY88yieypX85vgVSB3B7Zaag6ZV6gHK/HSWz1/JO1cG8/1nXiXZrGD0gMUfX+nv/frNcbhzfiX3T7GsCCB1BivmJ1Hqr3eFQdOO23rKbl9SaeQg2dsfNAzZJ4ufrp9Mw3qj3s5zxI9aamzzSV6zbEMPkgK9c8vVgAlYfNdV+pLI0XABkxBCCNHJxCxo6uXJIkOr5Z0TtWpRp5DcLwk+v0QdBeQ+YwYe2zkPNNcHelZuv3UwcI4PlB4ZVfLcyQziHH9Y9gD+GLHyAX53/AqkTrYEJ32gcrs/cIjnQ37n78lJ4tvW4b4r5fzGv75N7D50Dvrcwoh09IT17MFQs93WE1S3+UXeuQKDsi3BFRg9UIGApe74hzRjGYJMf5UJqXB+pyWoMdofP2qGLZgDOL/T0pu19xTngfh+0eR4fUlOhg+qe/GwWiSEEEJ0YjEKmlIYmK7RXFlBk1rUSSTf0Ifmz85BejaePlfwHt8E6TcRzxUaLqq1W1PAiPQ+cKUhEDAZgoITjG2ZPr8U9BxTc+Uhe9nFhsC60rPx9EHfB5tNnKq8An2S7EGTv1fNWfKoW4h3CA7r6huCgzmHetH7C8lxcPmzb6gFQZYOGAQtleyUoTkhhBCdQEyCpoTMLAb4KvhTp8lfCvbt6/UeJT1YaODfK4EBSYG/oxEmAIquF6Z11l4xOzXQCS/5hj7AYL6v3CG4Ytpgteo1t3TcG1TNfoOsiz8gbdfT7FQrCCGEEB2g7UFTchZ3pvioOFHFF2pZZ2X0ECX3S7Itbv7snJHbNJhb1RyhCIUObtpLZMGfvp9q/pH5cE6Wv1ZWlv2AtC0/oHzAG1RNfZJpagUhhBCiA7Q5aEq4MQXQyLhLn5tJf+jTDsSnT+qc8zVZmQHUDX1ort9kDK/BoFutydwqY0hMSeQmzLBXNGzrqjyE94pTu4yhwppTQQnX4TgPw7WNu3V+g7oW6HvDX9SCICsvnoe4dKbFqSVCCCHEtdfmoKnpRDG7d6iPci4CzZX72b2juBNNO2Dok0QyTzPZf6v909yaagYnZjL3DOUuOEieu8uf4F23eR/nGcz3rXXSX+VHo/rQfDyQ+B21oHUZieGpM2x3yiXPfZQ7+1zhnZLW7vZT7N3OO1f6cOf8XUGBX9SMHKw789TAzurr7KnQYMgXvKQWCSGEEJ1Ym4OmruLfP9fzjPzBzvrJNKzfzvk+Wfx0/Qyw3EVWt3kUy9eX05w6w5bv8yO2W4atnuS1+ds5b60zP4vmnelR/xxL/Kil4de1dyrLd55j0LRAm/QpA6IZTtvE7mXp/KHGIa9JCRZdq3yANTv1wC6wvuCgbNXbvblMI2PmKwVCCCFEJxbbyS07seS5x/npDftcTVh57ekTRMb3oB8OfunlKh4aksjL2Qmhpx6QyS2FEEJ0Ij2mp6nu+Ic02+ZPEh3p4d8lc5lGHnr5z2pRwJVmjClHhRBCiA7XY4ImKh+gtCY4hyd57vHg2bRF+9vXh+v/LRGGfMznz36plupaLnGJvyX71gfUEiGEEOKa6zlBE/BeYXAOz0/TP2RfDO50E1FYn8DPjmr0zfiCxWoZAK/ygy1/4MP+36dq9htUjZPgSQghRMfpMTlNQgghhBBt0aN6moQQQgghoiVBkxBCCCGECz0maOo/6A6++TedeGZyIYQQQnRqPSZoEkIIIYRoCwmahBBCCCFckKBJCCGEEMIFCZo6iSWby6goDzy2L1JriFCmbf2/VF7YzfGtE9Ui0SY/ofjCbiovrOPnapEQQvRAEjR1EoVzx5GRNY6MFSfxqYXtaMnmMir2riVPLRDd1rxls2gozmO1WiCEECKs2ARNyVnkTs93eGSRoNYVIsZ2flIPwKVPDqpFok2qabgCXPmcs2qREEL0QLEJmgDwUfF2Mbt3WB/lNKnVhBBCCCG6oNj8jEpyFrl3aFS8vZ+L13JsKQL9B91BfW0l//WfsW3gks1lFHgC//vK1pO1ZJu1CvAE28vzGOr/v4ZNWXMotNUx5KylfPlILm0bx4w1aiHATF7cO58Jceb/PkpX5PDoHnstgLzCPawcF5ibyt82YxshZ61qOcnSKQsp8S9Q269u02hTfQkZW5Nt63Y+HuZxU9fTTrLHUr0wA/8hw8fhtVvJPxSosnrVI8yhlKQdCba63p0bGbvJ+Cd7LNUL+3N67VYuTn+EOQON5b4Klt9/hA3Gv+4kUvxaPuMbg7fZcqKYIc802mqvXmXZXog6wftZS1F+CY8DkM6R4glYTlWFta4QQggnMexp6nn0C38Nm7KMfKSscWy/4X5ezLFUyllLeXkeN5Wt99fZ5E2loLyIJZZq7jzB9nIjODHWtbQMJizfY98mM3lxbxkrx0HpikDbniZPr7dnIVn+thhBkmUfMqwB06IiKpT269t0SFb35FGx3MMpc5vbatDGzQ+uxxNkeQA0RnxvploYY+kceRB+nb+RJONRdEFj/MJZFGcrVQdOoGFhf06v1estP+HDM02tpzF+oRFg5W8kKb8Ur5bBilXp1kruKdtM2llLXGY+RwrMCukcKX6EOYkVLDf3YW0FZObTYNnmvGWzaFiYQf1O636mMKfYbH8lY43ly0/4jCApUDdJAiYhhGhVDIMmjYy7elI+00wG9wO8Z2w9RoVz7T0nS2aNRGs5ydOW3pbCuSWcJZUZhZEFDHmF2Qylhk1zn/MvK1nyGqUtGhNmPRGouCiPCXHBvTglS+ZE2KszkxdzUsFbYust0rcJQ3PUBPIaNmVZtrnmDGeBm25S9/M5yr0APk79MbgXKrYqGav0Aj2+o4IWNIaPTbQsJagHasMzp/A61btQStLiSuOfSl4/4YOBQ6JMrK6lKN/S67WpGi/QL1nf5rxlI/BQS5F1Hw4d4dcnfDBwhBEQpXNfpkbLieJArxjw+OJSvGiMnx5lQCeEEMImNkFTXbmSy7SfCl8Kd06fxICQY0Bd3TbO1Ru9K5stAYuN3qPi++CYZagLoIaGFtBuSLUtDW8mU2/VgoI0fzv6JfsDmCW3p0KLl10RBUgOckYzIg58n9UoBdvY9YEP4hKwXY5bmjBDCd1zzMga5zg8p98teA2G5pwcakJPHVf4PuaAZcgOGqn3QVyCPWjynrHv5YY6H6AxQO25csPXzEe2BXqPkD70lsg9aZpDHdhw5GNa0Og3CCgYggeor1OG66jk+AUgMYF5SokQQojIxSZoCuLj4okKmtFISe62UROFc8extMynB07G/Erl1t6jnGRuArRx821zMFWUW3OS3EolKc4I0mzrsudU+XvA6uuUQC16ly4FBz26BAbbhgU7J/0W+0csj3C5PbGxepV1e/qjepnas+VSY1PIfCmzRwp81J9XCk1aPDery4QQQkSsnYImwOfjChDfp/sGTQAlS3KMXJ/1lLboAZI/cNpTxyUjGdqfL2R9WIbZWqf3TuEN5DPZHv48pOCep/bTxLmO6CmKwLxls1iRqeG15Pok5ZfiVSvG2OOLrdvTH0GJ2zEQ3LvkwKGnSgghROTaL2hK7s8A4OKntWpJN7WNR6cYgZN/2C2aYbhQ3AdDlZ/5IM7DVBe9QHpdZZjNtOcYp1pg6O3q8GOooUL39BnQ1QT2WDOHtyp43ZLr41p2GsO14OE41ephKQ5De7HQyIEq53ypeWP7E0ctxzeZeVAOuVekM2ogtFRV2Xqq2jSc6GRRkd7rKZOkCiG6ufYJmrQ0Rt+RArXlVNSphd3FE2xXLxJBOUDbeHRPDXjy7MN2USrcehJf3EhWhsyh0pUsOcRZNCYst9+hl1dYFBSklFxqgpBJ6YH2W++Ayyu8X0803xpJT5nVtbp7rpGLjYDWn3vMACF7LNWuhucSKX4wg7jWAq6CPOYMBO/BSKcccEdPRk9hjvXuvOyx/H2mRsuJcuOONz0ZPS5zku1Ov9WrJuChlp1qD9f5ZlpimCCed5Nxy0fcSB4IulNSCCG6j5jM09TLM4mJ6fZhuIvvFneqgKld5mlymO/orNP8Sg717HMdqfMgWalzOjnXDd6uOp9T6DmT1PmcguZpWlRExUxrb5naJmNbqPM7hXbt5mky5kPy714tRfnVjCqeQD/LXEfqPEig3iXnNA8SQXfcuWe0CzdzPAXPsWSbP8pgDkX6hZs/qiCPhmkplgVtmacpcE4Gn4dCCNF9xCRo6graJWgS3cbqVcZcSKGCDAJBU71DwNLTXbsgWAghOk77DM8JIXqORUUUeMBX9poETEKIbk2CJiFElJ5ge3kZFTNTObvNeT4uIYToTiRoEkJESZ+8NCNL8piEED2D5DQJIYQQQrggPU1CCCGEEC5I0CSEEEII4YIETUIIIYQQLkjQJIQQQgjhggRNQgghhBAuSNAkhBBCCOGCTDnQZoHfeJPf3Yqhm14lbkEW3/QvuMKVdaP4z0u2WqI9qL+VqP4WYTu5bvpxEsf2CSxoLqfxuQf4ylpJCCE6kPQ09XBLNpdRsXcteWpBJ/Efv0/ns6XpfLa08wRMnf2YtSavcA8V5UUsUQtMexaSZUxaucmrFkbHzTH7asco47VOp/kjtVQIITpejIOmFDKm55Prf2SRoFbpdrbx6BSZFfnaM37CQ31sfkKt2C0s2Wzfz/LCmWoVIYQQ7SxmQVMvzyRyp2fBu8Xs3mE+ymlSKwoRQ76y9WQYvSIZ22rAk9fNAic9OCzod5Kl5n6uOAnj5nez/RRCiM4vNkGTlsZ30zUuvltMRZ1a2F3N5MW91m//e3gxR6myqEgfBslZS3l5mTEkYnme/6KnXxi3LzKHTsx1Og2hqD0swdsNDL8obTSHR/ztKaPAA8SNZKV1nUHDKK1v02S2f/siteQaWFNCaQvgGaYct9bb7zh8ZByn7YuiOWatnR9G+eYnbOuuUHqR8gqzGUoNm6w5RXsWkmUEiOZxbrX9lmOwcpwGpFJgOyZO55ob6rG1rCfiYyaEEJ1bTIKmhLQM4n0VXOgxARO2YbmMbTVqoUUCMxYlsD2rhLOkMmPv/Yz4YD1Ly3xBF/ehM8tYeavX6FFYT2lLKgXWC8uiIirK87jJ0ruytAwmLHcKUlIpKJ/PiA/MuiWcjRvJys1PBOestFh6MbLGkWFL+n2C7eV5DPWWBMqzDpG0yOmCN5Opt+rpw0Nv78BekJYmKs2/IzpmYUR8zOYzoT5wzPRtqoETes/Ycg+nVgTOJW3cfH+g88A4DbxnKFSexpoznI3oOAd+XHdpmQ+oYZO1/VlzgrfRmpy1lCvHdpM3lQIzcIromAkhROcXg6BJo7cG+Hx8K9Oaz5TPaI///pseTIMPSvwXJA0vTy/ZZvyXwGDrRdR2l9I2Ht1TA3Eepuag90zkpIK3hCz/86FkyWuUtsDQnOAg5uy2cZa6z1HuBfolB9ULKyeZm4Cz7z1nWfgcMxwveNvY9YF+d6K9/rWRV3g/E+LA98Exo22RH7NY8PcOzQ0cA32bGhNmqUFODZuycnh0j/GvEQzddNPMEMfeVENDi7rs2loyayRay0nL+QyFc40vB5JzJYTohmIXNKVk8e1PLflM79YSnz5JAid8nPpj4KJCfZ1DsKELXOwNVU340EhKA3JGMyIOfJ+pvVpGoBKXQLptuY+GKtsCCudG8e1+Tx2XjF4wNz0zJUtyyLiGSfHauPn+4Z6V46B0hSVQjPiYxYLR2xbUO7SNc/UOQau1Vwz8PULWIC8sdX3XzBNkeRzOWSOY025ItS0VQojuIAZBk6G23J7PVFfOO7UQf2MKvSyLRdtcuhTqYqr0WsXMc8zIWq/3zMwMlZ/TcfyJ4NtqAKeenGt9zFJJijOG3Wy5PkZeT6yFCcLbldELZg1a9Yc+Z5kQQnRHMQiafFyN9XyRIgpNnDOHeGLOkr+14iQ+NOf8nI60Zo6eN+PJjqBd7XHMjGEzWw5YlHk8Ri/fTTc5DXXpwVlwL9o1YrTNdvei9WEZmhRCiO4idkGTpik9SoFcpy9sy4Vbed/zoFFD+RpgzzFOtTgl/oYaDnKn8rMIh6n2LCTLCJyS0tTCjr17rnCrEdCZvU1tPGb68Q8W/piFGIaLip6Hpo3LC76zbdEwhqpDv4pQ7S+51BSDXrbIhuHCH7PImfNWyXxVQohrKQZBEzRVVdCsZfBdS/5SL08WGZqPiqpaW13hUs5anhyn4Sszk8iNxHDLbeb4k599lG6N7pu9fgENk7i7qCjowqRfjINzpjr87rk9C9lu621yf8z0i7qZdK8Hf/qt+cFaO2aFW0/iM+9UbCM9EEylwLqunLWUz0zFV/aaP4E8kvabuXJOQ5nuBY6ten44ae2YRWYmg/vpfzkGlEII0U5i99tzWhqj78og3r+glnc60eSWMf/tOfX3uazMu+AWFVExM4HSFTk8usdy6/7c54yLGvYyZTWOv2W3qIiKmdZv9zVsUm4Xt6/bUhBC0AVW+a2xoHKHbZrMuo5tj4Tx23Nf/j6d/ziuFuKfCuGmsvX2pGnzdTGOM7g7Zhi9F/68o5aTLJ1SxwPleeCwL0HHJOj32Vp7TY3fLER9npPgdTkd30jaH+6YBO2bhS/U8bZWwud47gWtN+iYBXzjJ5XEJ4b57Tl/+51fSyGEaA+xC5o6uZgHTTEVIgDoyVoNmkR31mrQZAaSYQIvIYSItZgMzwkhxLW0ZHMeQ/FRukYCJiHEtSNBkxCi61hUZEzfoEwKKoQQ14AETaJT+9sfVnLDykpuWHmcv7lJLRXdyXXTjxuvdSXxN6ulhjVzjGkNJI9JCHHtSU6TEEIIIYQL0tMkhBBCCOGCBE1CCCGEEC5I0CSEEEII4YIETUIIIYQQLkjQJIQQQgjhggRNQgghhBAuSNDUHRkTAPofMfjh2M7I/KV782H9Ud729vMDu6m8sJvif1FL2mb1qkdoeG0s89QCIRTzls2ioTiP1WpBeyrIo6H4kcBjVbpaw2ba1v9L5YXdHN86US0SokuSoKmNlmwuo2LvWvLUgo7knwBwPaUtamE0nmB7eZmrX7O/lgrnjtP3c8VJusfsW+mMGgjeg0fYoBaJ7iN7LNXFj3CkQC1oPzELsDaVkJS/kaT8Yg53jzedEBGJQdCUQsb0fHJDPe5Ko5f6FNEjhQwwFxVRUb6HF3PUgs7rbMNV4CoNVWpJ9OYtG4GHWo5vUkuE6Jp2flIPwKVPDqpFQnRJMQiaaqnYUczuoEc5F4HmT2v5Qn2KEEKRyD1pGlyo5nG1SAghRKfQbj+j0ssziYnpUPH2fi52gm7cmP6MSs5aypePRFOXm1pOsnSK9dfXn2B7eR5D/f/XsMny21lLNpdRQAlLP8tm5TgNvCVkbE32b+PstnHMWAN5hXtYeauXpVPqeMCyPl/ZerKWbPOvPWAmL+6dz4T6EjLmPqcWBsrjAkus68or3KO3J4Sg7S4qomJmauB/r327SzaXUdBPPTbm8xIoXaH/AKu+3SY2ZZUw2Nq+oONqMF6PS8Zxcma8BqHW0dEK8miYpnF47VbyD6mFiRS/ls94y0vRcqKYIc80+v9fveoR5lBK0o4EqhdmYB4y786NjPX3XKVzpHgC7NzI68mzWJFprrCWovySqIO1ecus6wpuG2b7Bgb+t9XJHkv1wv6cXnuKfgsn4MHH4bVbuTjdeI6vguX3H2FDhO0Pu03Xx8xQkEfDtJTA/xdKSVpc6f933rJZrEj7mOX3N3Ff8QQ8xnLrNtX2qBy3G4Z+3H0U5VczynGb+vEylwczj5t+fg2vKmZnQj5zBhrrqMsy9ll/PeznpXFONtqPgxDdXQx6mpykMDBdg9qKThEwxdyehWRl6fk0m7zGxdz4PyNrHBnWi3LOWsrL87ipbL2/fJM3lYLyIpZY19kvmydvOETGthrwZFO+yMOpFXpO0tDbLYnccSNZWZ4H24xtbatBGzc/qiToJZvvhzWWdhvrMnOXSpbkGGUlnDWCJH/drHG2gCmvcI8R+JjlJZz15LUhCT2VgvL5jPjA3GYJZ+NGsjLa9S0apgeZcR6mdsJhwNXDUsD3MQeCAiZYvWoSvLLRyCXZSNLOWuIy86lelmivOHACDQv7c3qtXm/5CR+eabMozrZX80x7RL/A+3NTUpgTVfJ5IsWvPcKKTDhsbDMpfyO/JsuyzXSOFD/CnMQKY3sbSVpbAZn5QUnEwx8cQf3aYg77NIY/OEsPaHbWgtafeyz70Hr73W9TP2bx7DTqOR2zectmGQGtuY+leAdOCF6XlsGK4hHUm/WM18nMXXp8caAtLUaQ5H9N8yMLmAJSmGMEkoFtTjLaX8lYy37pQZJ1m0qgmTaJaU3FLD/hIy5tEtXToCi/FC8aw8cq55oQPVS7BE29PBkMwEdFVa1a1OMsmTUSreUkT1sCjMK5JZwllRnWxOo4OLXV7JXR4IPXeHSP8W+/ZFsekNnzBMCakuDAyqXCuXrPjp+xLu3W0cF5R2E9wQPjNHxlljbzHDOMADDaXKWz26yB2XOUe4OPhWtrznAWoMXLLus+dwrhE8AfX6x8y99UzmEfxKWlKYGOvUdgwzOnnC94/p4bgEbyDwYHJq4UZDFeC+6F2PBMif9/M0+ryL894NARfn3CBwNHWIITjbjGU/7nxWk+ivw9GBr9Bpn1Wm+/+21iHLNA8LDhyMe02LaXzn2ZGi0n9lv2sZKxO2sd1gXenZZjsaka/ZRt34DD1kO1qdr5NXchTvOx0+yJ0zTqdwaOS1xC5OsTojtqh6Cpm/cyReQJsjzg++CYMhxUQ0MLaDdYhrKUi/mlS07DbQA1lNuGoLZxrr4NwYSNsa5ILRrGUHyc+qPS5qomfGgkpdkXu+MLSrIunKv04kXkOWaovYCdROQJ4I1ctI9+6YJ6qhqp9wVf8FqqquzB2flmJVBwJ1zvmM7I0/I185FSEhycgPeMZZjH4Tmm8O2PbJvh2w8UDMGDj9NHlAPueMwieQ1jJYbbtOXT+ag/bysVQrRH0CS9TBY5ydwEaOPm2+dNKrfnEXWYnLWU29pVRkHoBIiQ8m5KADQmLLevqyJc3pcw6Bf5lhPlQTk5fsYt6tb5ccLlxlwbiQxIBBqbHHvHbMLUabdemBhtc16yBmiMX2g//g2WHCghRM8R46BJepls9tRxySEXyP9wTM6+Rsxkdm+JrU2bvGrF1pVcagJ8lnwm+yN0crYwh7iCejJM2WP1JOULpbb8l6ILasVrzejtSkyIIhcqoL4uxH63o0i2uaHOZwzh2fOP2paHJIToqmIaNPXEXqbKz3wQl4DzvLgOw3AxF2oIMLy873nQ8FHqz6MKp5X9iGQYzuFY6T1VTZxr11wjfYJOx3mi2ou/hyj0pIKtDXHNG9ufOHwc3hHFHUrZaQzXlGEvB/o2HIZ5Wmn/R02+VnKhGjlQ5YOBQ4KeH3KbUbCvK8bbdByGa6NDTegj6q31eOmJ9g0xmAhTD/40BoR8rTqQv8dbuTlGiE4ohkFTz+xl0ntZlKRuv208uqcGPHntNpv2ks15DKWG7Y5TDoSmt1tjxPfMds3kxb2hhueMXKdQSd17FrLdC0Nnhp+gsnDrSXzqscpZy5PjNHxlJf4pGNpFB9w9p1+kAVIY5XTRyx7LtDAJ4FgudoHEXv1C2vrwXCLFD2YQ56vg9XBBQvZY/j7TeXiwtfabiebjF9qDqnnL8vwJ0nqdFOZY7zQLs82IOawrpts8dISdFwi6o65tjFyzzKygwM7GCHoBPMPUrxoRMoK/8dPbuJ72kJZgDOOH+hwVovOIWdCk9zLBxU97Ti8T6D9ZsrTMZ89bsvZmrJlDxoqTEJTXFD7ACC2VAmsOUr+TLLXM+YTtN9mM3ClPnr++f2qCoHbPJ2lP6OG5wrnrKW2x5y1ZA8HCueNYWkZwXpP1WOxZSJZ6LIz5lZznmQrH6Dky1qEBQ2ea23X4xtoBd8/piceETNZ11fOxqUS/BTwz38inyaffwRDDc1oGK/x5N8YcOtY7yAyBdem5OfU7NwbNq4SL9uu3tBu3/Fvyff6ecvudZuYt+i626Ubr7Y/tNh9fvJHlJwjOa4pqmgb0O/7uL9UDO8v6gnqTDlVx2vgC2lpvYasOHWHIzlp9igX/Np17EMNZvcpyfmnGlA2h2u+WcdeuEF1Bu01u2dnEdHLLDhKY9NEeJImuKDChYDQXctXqVca8RA5BUoA+2WE/h8knu4au3n4RijmRrm06FSE6oZj1NAkhItBaArgQPYUxRI+3RAIm0elJ0CRER9hUQlK++tMUQvQkeh5lxfKRULa+Y+8mFsIlCZqEEEJ0gG08OiX4J5mE6Mwkp0kIIYQQwgXpaRJCCCGEcEGCJiGEEEIIFyRoEkIIIYRwQYImIYQQQggXJGgSQgghhHBBgqauxP/Dlg4/UdLBAj/dovxcyzUwbev/pfLCbo5vnagWtU1BHg3FsfzNMSHaw08ovrCbygvr+LlaJISIKQmargUj2GlzILFnIVlZ+rwmoX4jrqMUztXblbHiJN1lUofVw1LgwimZgLI7yx5LdVt+N00I0aPELmjS0hg9PZ9cy2O0x/iJbtHpLNkcoqdqUVEbfky4Y+z8pB6AS58cVIuilz2WaQNj8EOpQrS7ahquAFc+13+UWgjRbmITNCVnkXtXBlfeLWb3DuPxbi3x6ZMkcBJd0ryx/YmjluOb1BIhhBA9VUxmBE/IzOdOrYKDb1fxhX+pxoC7JpHhK2f3iVpb/Y7QXjOCL9lcRoEn8L+vbL3/JwHUMpX+i94zeXHvfCbE1bApaw6F1go5ayk3fpdJ/ZmBJZvLKOh3kqVTFlJiKzE9wfbyPIb6/7evP+TzFxVRMTOB0hU5PLrH/v+5Wdb9cWgvgTZfauXXyvVj4wtsp1NJ50jxBPqdKGbIM+oP6iZS/Fo+4y3fBVqUevOWzWJF2scsv7+J+4onYB4yez19G+zcyOvJs1iRaa6wlqL8Eh43/ovUvGXWdanbdK7DhVKSFhs9atljqV7Yn9NrT9Fv4QQ8+Di8disXpz/CnIGAr4Ll9x9hA7B61SPMoZSkHQlUL8wgzlidd+dGxirB5upVxvMNarvcHTNDQR4N01IC/1vbj3UfLO3Goe2W9qic9sGV1tqG2b7A8Qr1mqttdDwWQohrKjY9TQBaPN+yL6C3Bs1XYhukdCb6hb+GTUaeUUbWOLbfcL9/aEvN8zm7LVAvI8sMKrbx6J4aIJUsJecp73seNHyc+mOEv8uUs5by8jxuKlvv39YmbyoF5UUsUeu6ojFheRkFlBjrW09pSyoFTsN7rjxBlgdAY8T3ZqqFHa9gCB58nD4SfIFavWoSvLKRpHzjsbOWuMx8qpcl2itqGawwgiJrPTV3xjPtET1YyN9IUn4xh30pzHltLPPs1VxIpPi1R1iRCYfXBtr3a7IsiexmHR9FZvvzS/EOnECDss3hD46gfm0xh30awx+cpQdHO2tB68891sT4gRNoWNif08Y2l5/w4ZlmTZ5P50jxI8xJrDD2cSNJaysgM5+GVemWFZnHbAT1Zvsdjtm8ZbNomKZZ9tFov7ouNMYvfIRpTcWBeloGK4x6jy8OtKXFCJL8r2l+dAHT6lWP0DAtxb6uM0Psr7kRMHHCbNdGktY2M01pvx4w1Vpep43sTJgkNyUI0cFiEjQ1nSjnIincOX0SAzSAFDKmZzHAV8GfvN01aJrJ4H6A94ytt6VwbhQ9J2vOcBYYevsTloUzmXqrBt5DEa9vyayRaC0nedrSO1U4t4SzpDKjMLogxWf7FfJt7PrAB3EJqJcqd56j3AtEExBeA+ESwB9fvNW+fFM5h30Ql5YWFOjYeiuMep5hyhGz9H5AI/kHHQITNwqyGK/pvULW9m14piTwv7+OtVejkrE7a0HL4D7/xV0jrjGw/3GajyJ/b4lGv0FmPcDoiTLrbnjmFF40ho/Vg8h5y0bgoZYi/z4Ch47w6xM+GDgiKAjw7rS0f1M1XqBfshmQpnNfpkbLif2WfTTa77AuLpRaemYqOX4BSEwIep1iwsyBU3uoNpXY/x8UT5wakB86whBbb1QiAxKBC9W23qegc08Icc3FJGiCWip2FPNOrUbGXfnkTs9iQG05u23Ddd3NNs7VA548KjZbg51oGEGEZ1igJyhnNCPi4Ox7ZqDilt6L4/vgmDJsV0NDC2g3pNqWunXpkj24KVmSQ4bT8JxLei9cFAFme4s4AbyRi8EdUhCUD2XUUy7aLVVVgWAC4HwzLUGBSetWD0sB38ccCHNRXT0sBfBxUa0TFJwo++9r5qPAf3ZB22yk3gdxCYlAIvekaY7P33DkY4f9VI+ZIlQPYIhj5v41bDvXOXBGW8cvDDeVhXGuOPagCSE6UoyCphQypudzZ0ot7+woZvfbFTSnZJHr73nqngrnjmNpmU8PnIz5icqj7Mkp3HoSn2WILu97HrSWk7waJi/IUU4yNwHauPm2eZMqyuczIZBEIUKYN7Y/cb4KXg918TNuUW+wPMLlxlwbRs9EY5M9AHPiEMCY9ECnHYRplzVQa828ZM0/7GY9/g22/KCOcXOCc3AY5NARhuSX4rXtRx6rlWqPL9aHOhk4wb+fQUPAQohrLgZBk8aAu7IYQC3v7CinCcBXxbEd5VxEIyMzjV7qU7oRvcfFzPPRg5WoAqc9xzjVYg7R6UNzwb1FLuyp45I5nGbJn/I//ENsIpgx/KP2/pjMBN4Lpbb8l6ILasVrzbkXK1ItTY5dZu2qvs79NjfU+YzhQHv+UVvykGLloyYfaPHcrBY4qmSs2e6dtUAKcxwCpw3PbDX2rVgfAnbKnRNCXFMxCZp6a/o32D/blvu46nNKEO+utvHoFCNwUofAjEDmppvCBVNGQrhnGEtyRjMiLtp8nwiG4RxykvJuSgCaONfOw2b6DOLXcD4ofw9R8MXJL9Twj0EfgvFxeEc0wz7pjBroMBynCD3MoydxN4SYiFG/aIfPhXr8TIh8qVb2OyLZaQzXzKGxRg5U+WDgkKBjHno/wwgxDNcmh5qod9njtXpV6B4fPaBLYZTDaxPWphIjcNIYoL4ufo3k328ETu3VGyiEcCUGQVMt/16r3/kyMNmyODmDDA2o/Vjvfep2nmC7eveYkYfk+6zGujQQyIzLC3/32poznCWVguUj0aJIANeZwVde2B4vczjQlhies5Ynx2n4ykqizlVy59rfPadfpAlzYUukeGLoBHD8F8ZAkrMZyLgZnlu9agIeatkZ7pbx7LH8faZGy4nyoNvPzWAEHJLJLQnY4xfag8J5y/ICuTObyjns0xj/oPVOuXSOTAu/3+4lUvxghm14U29XCnOsuTnh9jOcQ0fYeQHl7ry2MnKwMrOCAjs7PegF56R/f6K/2raCvKC7/9SgNzjXLJ0j6h2UxuvfEb2BQoiAmMzThDlXk2V6EoDmyv0c6yR3z7XLPE3GnETWtC197iXLAj913iTnuubcTk5leYV7WDnOOUnMOj8UOLcNlHmRHOoEbXdRERUzU4OX2wTvW4DzfE7XfJ4m/9w4znPimOX16t1PCnWOI+/OjRwfZtxSb9whptYB9S45/PM0qdN4Bd195ReYH8pNHVPw3D6t1LEdB6MuRtuNOYjM7avzCEGIeYkc9lXdB/2Y+ZTXxnm+rFaPb4jXcvUq++sU0Hr7sMybFHxMA4KOicPxCKoTdG44zeXk3CYhxLUVs6Cps2uXoKkdBOZ+Cg40RPsJTK6oXlAj5xwAqJwDgq4kdBAihBDdUwyG50TsGNMFtPvwmLBrJQFcCCGEkKCpM5nJi3vzGKpMSimuBf1upq7a4yOEEOLakKCpwz3BdnMeJRx+C04IIYQQnYLkNAkhhBBCuCA9TUIIIYQQLkjQJIQQQgjhQo8ZnhNCCCGEaAvpaRJCCCGEcEGCJiGEEEIIFyRoEkIIIYRwoYcFTQ/wxuw3qJr9BlXjHlALLb7kwI4qPn/2S7VACCGEED1UD00Ef4A3Zn+fWz7+A2llr6qFuvlNfPV/Gjn7b2lkrFcLhRBCCNHT/NXX/jbxKXVhVLQ0Rv9dNsPThnJz2lBuTvmKT2ua+Itar1N4ny/+dxqT+/03Fz8qxasWAxzvxdW0/2b23/kYX6ux+ZxaQQghhBA9SWyG55KzyL0rgyvvFrN7h/54x5fBxOlZJKh1O5O4eG5Rl1ms+sUNvNXi4+75V1isFgohhBCiR4lB0JRCxh0pNFfup6IusLSpqoJmUvB4NGvlLubr3LMvEeLqeHC+WiaEEEKInqTtQZOm0Qe44lN+081XS60P4vt05aAJWN+Ls8DQEX9WS4QQQgjRg7Q9aPL5uAL00UIER5pGL3VZJ7CzpV5dFMK3OFoNJP1FhuiEEEKIHqztQRO1/HstxKdnMcASN/XyZJERIo7qFK40c4VBzBg2QS0JUvmZBnF/IV0tEEIIIUSPEYOgCZpOFPNOrUbGXfnkTtcf36WCCp/eE/WF+oTOoOVp7tjyA7b3fZyq2W/wrovgSQghhBA9VzvO05RCxvQs+lTu55hXyXfqDOKe5N2pI7l0+Af84BO10G7xs7U8P+abvJydwMNqoRBCCCF6hJj0NDlK7s8AavF2xoAJmPaddPpwnvJWAiaA9Bt80PINKtUCIYQQQvQY7RI0JWTmk3uHRsXb5TSphV3OnxkzBGj4BqvUIiGEEEL0GDEJmnp5JvlzmXKn53Mn5ezesZ+LnbOTKTLzv2AoGm/97ltqiRBCCCF6kHbMaercpg0ronB4Pa9sWcxKtdDvSw7sOMfdDf257iEJmoQQQoieLCY9Td3V4mc/4+446WUSQgghRI8Nmh7gweF/Cx9/ELqXaX4Tz4/xcfbfUrhnn1oohBBCiJ6mhwVND/DG7Deomv19bmk5yZKyV9UKhi85MLmRy0cHk7FeLRNCCCFET9Rjc5qEEEIIISLRw3qahBBCCCGiI0GTEEIIIYQLEjQJIYQQQrggQZMQQgghhAsSNAkhhBBCuCBBkxBCCCGECzLlgAgvZQ37HhxJb/P/lpM8tW4RMt+n6CoWP1vL82N8gMZbv5LJaoUQ0ZOepi5nKa8+eZh9U2aqBe2jdhGTnx7PmKfHs+W8WihELKVRsesnfL48US2I3vwmnh8Db/0qjeuyJWASQrSNy6BJY8Bd+eROz2e0R1MLdVoao6frdfRHFglqHSE6ysO5fLXrJ3y160ccuFstbB+Ll//I2Kb5yOUltZJoVy+NaITqeAmWhBAx0WrQ1MszidzpWVBZQbNaaErOIveuDKjcz+4dxezesZ8KXwp3SuAkOomXhqfA+Q9564rG7eNj2JPhKJEDW3/C86PgrVX/ynVTzcc5xqxLUyuLdvMlA5PUZUIIEb3wOU3JWeSmN3Pw7Sq+0NIYbQRGx7w+SyWNAXdNIsNXzu4TtZblKWRMz6JPUP2ONpPCBY8xJs7838fRV3JZYjR98pTdPHWHBudLGLMl8HO+QctT1rDvQQ+nX8mlZuJhZg8yKjrl/Kh5QdSw5ekfE/hZO6NNTSWMOZhsq3v13ReYvHdbYPshmPUit5RXn8zD4/9fbVvA/NmHmZ3gsH/WcvM4QNAxNKn1HNve6jGLRBoVu8bDm//KKyk/4vn0T/jZrKOsstR4ad1PeIjDXPdGAp8vvoW+xvKzb/4rGWb30N1j+Hzxd3hv1e+48IOf8JC5D1c+tK1v8fIfGQHT77jnLWNhCHpdy+t6/jDXLagy/knkwNZ7ub3yTX6feC8PDYLLx9/k+tpRfHVvCuDzb8NV+w3ht2mUp3/Cz2Y18eCu8Qw1ll8+/ibXr2j019Ppx9asA7W8PHU3D5v/ujhmQe1ROG/XjS85sOMcdzf057qHvqUWCiFExML3NNWVs/vtKr5Ql1tpKaRocPFTa8AEvTwZDADib0yhl62kIy3l1SeN4MTI03nqXRjz4G4KU/Qa+/bm6rk7g7L9y0hZwxKHQAo0xjx4mNmY6yvBGzeSp2Yv9deYPGU3Rx8cSe0ufXt6blAqs58MbNNvUB5HH/Rw+hWj7q4aet/xGK+O0Nvl34YRaJjrG/P0+OCgw40Rv+Xok3l4zgeOx5inz5Bpab9bk6fsJvNsoD1jXjnJ1UF5HFXWpQdMNWyxtH1Hwlz7sTACJqz7+EoT06NoFwAPD2YotRx9CVYd/oTLfb5DjtMQ3aDxfLX4O7xn9A797LiPofeqw3kady82ApSp/8p1Uw9zts8tPO/vQUokJ12DK5+wJ2zAZPZG+XjZ3xN1mLODxvPV1jEstlZN/x4/bHyTnx330Tf9e3x+L7w89TBnUXrNWm1/BNvscwvP77qNOrOn7M1a+o66lwp/NGQERLvGk3z8TX9v2svnU3goaBhSP2Y/bDTr2Y/ZqhW/Cyw3gqRA79y/RhkwCSFE7IUPmtzoHU88Pq5eDSxKyMxn4o0f806lD7R4Ost3vMlTsvFQwxZL4LNv72aOtmiMmRi4IK/f8oK+7IdrmMxMCn84kt4tJ3nKodfEHkitZMu7Phg0jPkALGX2HRpX332BB04FnrJ+Swle7NvU1bDl6UCvF6fO4AVSbmiPpO+ZFI5LdQgEV/KA0362Yt/eXNs+UruIHeexHAuAmaQmAOfP2HqM1m+x7DNAvwR64+P0B5ZAsHYRk6NoF/6huXN678dbXt4LOUQX6LkBWLXi/eDABLVnpopXjvtg0GA9ULjbw+194HKl19aTFeThUdzdx8dbqyy9MlSR8WYt9LmFBy3BSd8+Pn5vBg59NOreDDynb6J1ALyV9kewTYCzb1p6yl46x1kgOSVwLF76wS30vfIhv7IENQ8vOMxZUvihmsx9/rAl+Kni6HkgMcEeqAkhRCfX9qDJJoWM6fl4ruxn99tV/Fkt7lAzmezRgi7YsI2aJiAhmcmWZUt+f5KrcSN56snHGBPn4+jvnYekvGftF/J9nzUBCaSmACOG4QFqP1N7gVZy4ry6TaClCa/1f1byQLS9SK1JyWJ4XHD7Y8nbpA7LGsfaoQfKpr6Jq2i2HsDopTFmEJw9bQY5jVxohL7pnuALdlDvUBN1V9TAxLou3apa/Xb2gU69VyG8NFwfXrug9kY5BCf+gA8AH3XnAkU2rbQ/om0aPXOh6cc1ODh0d8yuiclfcHscnD3VWb62CSG6utgFTb3TGD09C94t7mQ5TKYBJMYZF+wnD9setjwcU+0iCt/V9+Pqu5vtPSER8dFYry4zxCVYcomuMaM3J2TbIqZPhWA9rk45WOu3jOepd3221yFo+oTaRUx+2uiNe9Bc328tPVYReHgwQ5VA4+HTzj0r19yVy1Sqywxq0BEzsdrm3QkkA31H3avcIXgvd/dRK19jk6/w+aEqvpoPv8pOIyO6RDghhAjS9qDpajPNaGTc0Z/at4upqAsUfauPBr7mTtLjdJHGFmM4zZJP43+oyc0jfstTd2h4zwfyimIuqGfpGjJ6cxL7qQXRMJLJW07ylOWYPmUEnapAftYLHG2B3nc8Fhw4Gb1sY57Wc7sgldlRBE5674qeU+O/sN+rd18NHd4Od7K91UQdIXqyInC5sUld1O4i2qaxn2r+kf9hSSy/5vb14frsNK5bD/9wqIqKSE8aIYQIoe1Bk6+WWh9QW8FF2zUyhW+nQPOnteETya8Zp2G4UJby6lQ93+eBLbs42gKeqe4u2POHpkKLl321Zk6SxvBb1YBgKZmD4Kq33HHILzw9+OudMEAtiExtHbWAZ2iYYTK3jGFIb5nzEGZo21iyzgicwu3PqR8bgZMx7OmaMYTkcGF/+TyBPKRQjPyk1oaWXhqeYhkaM/J1QiWbG/TeLoc6Rs/Ye4djkPystD+223QehmubGK9zXy/ea4GhIzrH1zYhRNfX9qAJHxcrayEli4xkc5nGgLuyGOCr4E+daKhu/UEjTylcPg0zKVyQZ0kYN/KbSGV22OfpvVOzB1mDBz0xvPcd9rvD5s/W178jqlwlMy/IcndfVMyk9Tyll2cpr7a2n6r6Jq4qAdj82U7Dc0t5dcEae9Bq5FZdbbroXzR5yu6gnr35Q1OBJmoiGSYNEww8fLoWSGFMyCG6RA48rCc6vxIusno4l4cGwdm3AlMO6MnQGncvVu+8S6PCvMvupeO8dUXj7oetd62lUXFvCpx/v9WpClrn0P6YbrORe96qhUHjYziDt55vxqDbrtkEpEIIEYnw8zQZczPFq8sB8FHx9v5A71JyFrl3WK7ivgp9fqfAkk5CnZdI5901ngdOBeYQUucOcp6nyTqPEEFzPpmC5lgKmsvJmKcJdXko6lxTwe11bcRvOTo11bLAPh9SUNstbNtU1nP13RcoZC5P3dFkn1/J4biZx95Kncsp+Ji17qV1P+GhRPscSgHG/ELGnXAvrbPMIWRS5i/S5xwKzIGks9+xZhW8TmUOI2MeJmsOkH1OIqO8UW+Hff6nKNoPLrZpzpvkU9qqby9ZnTOptWNilNcp80WFfm1ab597Mk+TECK2wgdNIjTj4l/rcMEXXU/oi7hFiACgM3DV/h5HgiYhRGzFYHhOCCE6o69zoUFdJoQQ0ZOgSQjRbVV+psGQZg60fveHEEK0SoImIUS3teoXKfzsKNz9D1V8dahWgichRJtITpMQQgghhAvS0ySEEEII4YIETUIIIYQQLvSYoKn/oDv45t84zzckhBBCCNGaHhM0CSGEEEK0hQRNQgghhBAuSNAkhBBCCOGCBE3XyqIiKsrLqNi7ljy1zK2ctZSXl+nraeu6OtjPD+ym8sJuiv9FLRF2iRS/9ggNxeZjFsXZah3ROuM4rkpXCzrGQys4fmE3lX9awTS1TAjRaUnQ1EZLNscueMkr3ENFeRFL1ALTnoVkZY0jI2scm7xqoeieGsm/fyNJ+RtJ2qn8ErQQQohrymXQpDHgrnxyp+cz2hPmDrTkLHKn55M7PYsEtaynWzOHjKxxZExZSIla1gOdbbgKXKWhSi0Rogd4+RMuATR8wk61TAjRabUaNPXyTCJ3ehZUVtCsFvqlkDE9n9wbP+Yd+TIshBBCiG4o/M+oJGeRm97Mwber+EJLY/RdGVC5n2Nen6WSxoC7JtG7spiKOkjIzOfOlFre2VFOk6VWR+s/6A7qayv5r/+0tj1KOWspXz6SkH1uLSdZavYoLSqiYmZqoMxbQsbc5yyVn2B7eR5DLUvsatiUNYdCZemSzWUU9LNsJ4i6Xuf1dDoFeTRMg6K1zUxbmEEctRTllzPgtXzGa8CFUpIWN1L8Wj7jtVqK8kt43Pr87LFUL8yAE8UMeabRWtK6gjwapqVYFijrzx5L9cL+nF67lYvTH2HOQGO5r4Ll9x9hQ+CJ/nbEWZcB4OPw2q3kH0rnSPEE+intnLdsFisyfcH7hdk+zXi+Wuii/STqx62xlKQdCbb2tURzvHCxTZfHbN6yWaxI+5jl9zdxX/EEPMbyqNsFrF5l2Z7pQilJiystC/TXwdye2v7Vqx5hDqUsbxrBikxNf77l2Hl3bmTsplDrMl9r/4IIzeTFvfOZENdF3rtC9ADhe5rqytn9dhVfqMttfFx8Ww+Yegw1t6jlJEuN/4OG4Mxhuaz1lLbYV6N7jhnG85aW+YzgxrKuaD4sc9ZSXp7HTWXr/evZ5E2lIFy+VKeiMe3BeHbml+IlhWmvTWJ4VTHLT/hg4BBW00j+wVoghVEF9mfOG9ufOHycPhLhhTZ7LNXDqvXcofyNJOUXc9iXwpziPFbbKmqMX/gI05qKjXqleLUMVlgTjC2BW2BdGBfktlxEw3DdfmDgBBoW9uf02kCuVFxmPkeUY9kq19vUj9kcSkMfMwAtgxXFE2BnG9tlJH3PSaxgua1tSrXssVQbgau5D0UXHNqfOIK/Tzil55QNHEH1g/05vVZfn2eYsQ8FeTQo61p+AsYvfCSK9htyRjMiDiCVrEVqoRCiI4QPmkSXtGTWSLSWkzy9ZJt/WeHcEs6SyozCmba64c2kcMFhjj4Z4rFgDe3zo/EaVJX7v+3H8TG/9vc2aAzIBjZV48Vy0QIgkXvSNLhwKvLA5NARhth6IEIHZlwotfR+VHL8ApCYwDxjiR641bLTXyfMumIlkvarwZtxLPslJyr1WhHJNm09PJW87g+A7Ww9N5vK7YGJWwVZjNd8HH5F6f1TrJ6eQZyvwnJuweOLjUB9meVYaHB6h9l2Dar2B45dYgLzSKR4YopyXsCGZ/br7Z841n9uRGTPMU61ANRQvkYtFEJ0BAmaup0nyPKA74NjyrBdDQ0toN1gGSps1TaWrBvPmKdDPNYtYp/6lJhQeooamxwufkawYr3wZqcxXAPvGeuFvA3ON+PUOdja+m9OCDVw66P+vLqsHYVoP75mPrItqGRs/saoh8FsQmxTPWYb6nyBANivluP+oS6ARi422gNSN1YPSwHfxxwIGzinM2ogtFRVKedWI/U+iEuwBE3KuurrlONknHctTerxa+RAlQ+0eG5WStzZxqNTouxtFkK0CwmaupucZG4CtHHzA/M5lZdRUT6fCcEJNl3a4zsqaLH0aswb2584XwWv2y68el5KYJ4j/VFt7UkIVc8xJ6l1ZrsCvRVGT0SrF/K2iVX7cVpXOx8z17LHUq20q0EdTnMjO4F+QFxmvrIuI3cuCkHBlJ8aHAohuioJmrqbPXVcAnyWfCbbw5aE3pqOGp5z6VAVp/3DN/rQXHDPATy+2MxrCTzUXhU9adjHYTPPJ38jSWsrHHtNWjUonjjbBTmf8Tgki8dQTNvfEcfMrUNHGKK0K8kpab41h5qoNxLN1f1Myt+oJIu3lY+L7RgsCyGuHQma2qjyMx/EJRBh1oWjkktNQAKDc9SSSEQzDBdKRw3PuWXk0AwcwursNIZrUSSAg3+oJqpcqCCB/BbbRdhVwGTkZEUslu13q23bbNsQWngfNTkMiRVkKT1IDsNw0bIF71Zmjl115EGdYclmvad4uySCC9EpSNDURnqgE2mCdQhVTfjQmDDrCbUkAtt4dE8NePIoj0WbOrtN1XhJYc7CDOKivICbF1BbflRBXpRDTW7zcIyLdlqaUc+YDiCamCmm7XerDdssyGPOQPAeDB9Irl41AY8tod6dDUc+tg+PZo+leppGi+3uOTPgnuA47BiZwLqsd8rNWzZJT0j3J5FHSs9PBBiaE5tfHRBCtE34oElLY/R0fSbw3LsyiAfi0ycZs35PYoDxAZ+QadSZns+dKQAp3Gk+L9M6h0s3tGYOS8t89hwiy8+qmN8U/TlFnjx/vaBvj3sWkrVND3gCuUiBaQL0n1nRlxd4gLiRrDT+twVIa+aQseIkBOU17eHFNvVidUZGQrhDsrF7jeTfr981NcfMbZnYzPIoh5oeX2zcUh+Ue2O9/dzYpr9ePsOrioN/KsWawzMtxX/7fkPxIzS8Zt6VFdv2uxPZNj3TLMdhmsbhtdb5jUyWdRWbUwZEM/R2hCHGdAUNxY/QsDCenflb2anGXptKSFpbAUF5TVH8vt+mEpJ21tr2U59vqy1TTDzHq2VGpBej3mwhRNuEn9yyG4np5JaiU9Fza9SJHDuKMcGhw4SXgRygtlxIuxhjzqp62ySQwcJO6tmTmRPpBk2KK4ToCOF7moTo9Iy8lxOBeZ06lHFXllMezkdNErCLyCyZNRINH6VbJWASojOQoEl0YYkUv6b36lgnKOxQxl1ZgVwlQ/ZY/j5Tc5H8LERgKL6g30mWZuXw6B61hhCiI8jwnOiCLL/x5TAM1vHU3yDTteV31LosGZ4TQnQjEjQJIYQQQrggw3NCCCGEEC70mJ4mIYQQQoi2kJ4mIYQQQggXJGgSQgghhHBBgiYhhBBCCBd6WND0ZyoOVfHVoSq+evnPaqEQQgghREg9NBH8z1Qc+pih1f257qFvqYVCCCGEEEH+6mt/m/iUujCYxoC78hg7fCiJ/3uJS03/rVYgITOfuzKHcnOa8dBa+Ki2s86J9A2+lfbfTE79Ole3fpNjarEQQgghhKLV4blenknkTs+Cygqa1UJDQmY+d1LO7h3F+uPtCppTssjNTFGrdi5xf5FfDhdCCCGEK+GDpuQsJt74MQd37OfiVbUwoOlEMbtP1AYW+Krw1gIp/UmwVhRCCCGE6KLCB0115ex+u4ov1OVCCCGEED1M+KApahq9NcDXTGe9R23Vp99UFwkhhBBChNQuQVMvTxYZGjR/Wtt5e6m83+Ayjfzw2S/VEiGEEEKIIDEPmnp5JjExXYPaco55O+vdc8C+PlyfncbvbzjHV4eq+FyCJyGEEEKEEdugKTlLD5h8FRy0JoZ3RpOv8PmhKsacSuO67DSu/8XX1RpCCCGEEH6xC5qSs8i9I0UPmLpA8vjiu67Sl0SOrldLhBBCCCGCxSZo6mIBkxBCCCFEpML/jIqWxui7MohXlwPgo+Lt/Vz0aQy4axIZmlpuqC23z+HUSSx+tpbnx3yTl7MTeFgtFEIIIYRQhA+aujEJmoQQQggRidgMzwkhhBBCdHM9NGj6Mw+O8UF1L+llEkIIIYQrPSxo+jMVh6r46tDHDG1J5mcPfUutIIQQQgjhqMfmNAkhhBBCRKKH9TQJIYQQQkRHgiYhhBBCCBckaBJCCCGEcEGCJiGEEEIIFyRoEkIIIYRwQYImIYQQQggXJGgSQgghhHBBgiYhhBBCCBdcTm6pMeCuSWRo0Fy5n2Nen620l2cSE9M12zJqy9l9ota+TAghhBCii2o1aNIDIqh492NS7sgAh6ApiJbG6LsyiJfASQghhBDdRPjhueQsJt74MQd37OfiVbUwDF8V3lpA0+illgkhhBBCdEHhg6a6cna/XcUX6nIhhBBCiB4mfNAUreQs7kyBi5UScAkhhBCie4hd0JScRe70fP1xRwrNlfupqFMrCSGEEEJ0Ta0mgvsZyd2uEsH9d9vV8s6OcprUYiGEEEKILiZ2PU02Pi6eqKCZFL6drJYJIYQQQnQ97RQ0CSGEEEJ0L+0UNKWQcVcG8b4KLkhekxBCCCG6gfA5TeYklepyAHxUvL2fiz5IyMznzhR76cV3iyURXAghhBDdRvigSQghhBBCQPsNzwkhhBBCdC8SNAkhhBBCuCBBkxBCCCGECxI0CSGEEEK4IEGTEEIIIYQLEjQJIYQQQrggQZMQQgghhAsSNAkhhBBCuCBBkxBCCCGECxI0CSGEEEK4IEGTEEIIIYQLEjQJIYQQQrjg8gd7NQbcNYkMDZor93PM61MrBGhpjL4rg3jg4rvFVNSpFYQQQgghup5We5p6eSaROz0LKitoVguDaAzI1AMmIYQQQojuJHzQlJzFxBs/5uCO/Vy8qhY6SM4gQ/NR8a6bAEsIIYQQouv4/wMgTBRfFLsIAAAAAABJRU5ErkJggg==;" parent="1" vertex="1">
          <mxGeometry x="120" y="70" width="399.05" height="250" as="geometry" />
        </mxCell>
      </root>
    </mxGraphModel>
  </diagram>
</mxfile>
